<svg width="84" height="84" viewBox="0 0 84 84" fill="none" xmlns="http://www.w3.org/2000/svg">
<g opacity="0.1">
<path fill-rule="evenodd" clip-rule="evenodd" d="M13.8739 9.9898C14.153 9.69981 14.1442 9.23845 13.8542 8.95932C13.5642 8.6802 13.1029 8.68902 12.8237 8.97901C12.5446 9.26901 12.5534 9.73037 12.8434 10.0095C13.1334 10.2886 13.5948 10.2798 13.8739 9.9898ZM8.88093 15.6749C9.3943 16.1691 9.4099 16.9858 8.91579 17.4992C8.42167 18.0125 7.60494 18.0281 7.09157 17.534C6.5782 17.0399 6.5626 16.2232 7.05672 15.7098C7.55083 15.1964 8.36756 15.1808 8.88093 15.6749ZM5.45729 25.7416C6.09766 25.0763 6.07743 24.0178 5.41212 23.3775C4.7468 22.7371 3.68833 22.7573 3.04796 23.4226C2.40759 24.0879 2.42782 25.1464 3.09313 25.7868C3.75845 26.4271 4.81692 26.4069 5.45729 25.7416ZM3.75828 31.8235C4.57274 32.6074 4.5975 33.9032 3.81358 34.7176C3.02965 35.5321 1.73391 35.5569 0.919446 34.7729C0.104985 33.989 0.0802276 32.6933 0.86415 31.8788C1.64807 31.0644 2.94382 31.0396 3.75828 31.8235ZM4.02351 43.7384C4.91917 42.8078 4.89089 41.3274 3.96033 40.4317C3.02978 39.5361 1.54933 39.5644 0.653672 40.4949C-0.241991 41.4255 -0.213705 42.9059 0.716851 43.8016C1.64741 44.6972 3.12785 44.6689 4.02351 43.7384ZM83.6322 45.9615C83.9131 46.2319 83.9217 46.6789 83.6513 46.9599C83.3808 47.2408 82.9338 47.2494 82.6529 46.9789C82.3719 46.7085 82.3634 46.2615 82.6338 45.9805C82.9042 45.6996 83.3512 45.691 83.6322 45.9615ZM81.2578 55.7248C81.741 55.2229 81.7257 54.4243 81.2237 53.9411C80.7218 53.4579 79.9232 53.4732 79.44 53.9752C78.9569 54.4772 78.9721 55.2758 79.4741 55.7589C79.9761 56.2421 80.7747 56.2268 81.2578 55.7248ZM76.9243 61.2346C77.5977 61.8828 77.6182 62.9543 76.97 63.6277C76.3218 64.3012 75.2504 64.3216 74.5769 63.6734C73.9035 63.0252 73.883 61.9538 74.5312 61.2804C75.1794 60.6069 76.2508 60.5864 76.9243 61.2346ZM15.395 67.8322C16.4919 66.6925 16.4573 64.8794 15.3177 63.7825C14.178 62.6856 12.3649 62.7202 11.268 63.8599C10.1711 64.9995 10.2057 66.8126 11.3454 67.9095C12.485 69.0065 14.2981 68.9718 15.395 67.8322ZM22.185 73.6395C23.3111 72.4696 23.2755 70.6082 22.1056 69.4821C20.9356 68.356 19.0743 68.3916 17.9482 69.5616C16.8221 70.7315 16.8576 72.5929 18.0276 73.719C19.1976 74.8451 21.0589 74.8095 22.185 73.6395ZM29.9655 73.6697C31.1346 74.7949 31.1701 76.6549 30.0449 77.824C28.9196 78.9931 27.0596 79.0287 25.8905 77.9034C24.7214 76.7781 24.6858 74.9181 25.8111 73.749C26.9364 72.5799 28.7964 72.5444 29.9655 73.6697ZM38.5585 80.1822C39.6773 79.0198 39.6419 77.1706 38.4796 76.0518C37.3172 74.933 35.4679 74.9683 34.3491 76.1307C33.2303 77.2931 33.2657 79.1423 34.4281 80.2611C35.5904 81.3799 37.4397 81.3446 38.5585 80.1822ZM47.2454 76.6169C48.3397 77.6701 48.373 79.411 47.3197 80.5052C46.2665 81.5995 44.5256 81.6328 43.4314 80.5795C42.3371 79.5263 42.3038 77.7854 43.3571 76.6912C44.4103 75.5969 46.1512 75.5636 47.2454 76.6169ZM56.0097 79.0053C57.0079 77.9682 56.9764 76.3184 55.9393 75.3202C54.9023 74.3221 53.2525 74.3536 52.2543 75.3906C51.2562 76.4277 51.2877 78.0775 52.3247 79.0757C53.3618 80.0738 55.0116 80.0423 56.0097 79.0053ZM63.9207 72.2378C64.8494 73.1317 64.8776 74.6092 63.9837 75.538C63.0899 76.4667 61.6124 76.4949 60.6836 75.601C59.7549 74.7071 59.7267 73.2296 60.6206 72.3009C61.5145 71.3722 62.992 71.344 63.9207 72.2378ZM71.087 70.4722C71.9122 69.647 71.9122 68.3091 71.087 67.4839C70.2618 66.6587 68.9239 66.6587 68.0987 67.4839C67.2735 68.3091 67.2735 69.647 68.0987 70.4722C68.9239 71.2974 70.2618 71.2974 71.087 70.4722ZM9.93258 60.7084C10.9926 59.6071 10.9591 57.8551 9.85781 56.7951C8.75654 55.7351 7.00449 55.7686 5.94452 56.8699C4.88454 57.9712 4.91801 59.7232 6.01928 60.7832C7.12056 61.8432 8.8726 61.8097 9.93258 60.7084ZM6.0543 48.9225C7.0716 49.9398 7.0716 51.5892 6.0543 52.6065C5.03699 53.6238 3.38763 53.6238 2.37033 52.6065C1.35302 51.5892 1.35302 49.9398 2.37033 48.9225C3.38763 47.9052 5.03699 47.9052 6.0543 48.9225Z" fill="#131619"/>
<g clip-path="url(#clip0_2101_1516)">
<path d="M24.726 36.3482C27.4727 38.2187 33.089 42.3505 37.6078 47.6587C39.0889 49.3984 41.8674 49.0461 42.8711 46.9938C46.869 38.8191 61.1855 16.713 73.8341 4.00154C74.4517 3.38086 73.6596 2.38155 72.899 2.81494C66.9062 6.22936 50.4866 18.0551 39.9418 36.8137C39.9418 36.8137 35.7153 31.5143 29.4896 27.8903C28.3649 27.2355 26.9204 27.6672 26.3298 28.827L23.9802 33.4395C23.461 34.4588 23.7804 35.7046 24.726 36.3482Z" fill="#131619"/>
</g>
</g>
<defs>
<clipPath id="clip0_2101_1516">
<rect width="50.3231" height="46.0645" fill="white" transform="translate(23.7324 2.70972)"/>
</clipPath>
</defs>
</svg>
