<svg width="115" height="119" viewBox="0 0 115 119" fill="none" xmlns="http://www.w3.org/2000/svg">
<path id="Vector 1" d="M16.4055 117.919C16.1162 118.696 15.2524 119.09 14.4761 118.801L1.82624 114.086C1.04998 113.797 0.655242 112.933 0.944573 112.157C1.2339 111.38 2.09774 110.986 2.874 111.275L14.1183 115.466L18.3094 104.222C18.5987 103.445 19.4625 103.051 20.2388 103.34C21.0151 103.629 21.4098 104.493 21.1205 105.27L16.4055 117.919ZM112.47 0.89265C113.279 0.711249 114.081 1.21947 114.262 2.02779C114.444 2.83611 113.936 3.63844 113.127 3.81985L112.47 0.89265ZM11.2042 112.073C10.922 111.294 11.3246 110.434 12.1035 110.152C12.8824 109.869 13.7426 110.272 14.0248 111.051L11.2042 112.073ZM10.8023 99.1313C10.9488 99.9467 10.4067 100.726 9.59132 100.873C8.77596 101.02 7.99616 100.477 7.8496 99.6621L10.8023 99.1313ZM6.75229 86.8257C6.7611 85.9973 7.43977 85.3329 8.26815 85.3417C9.09653 85.3505 9.76093 86.0292 9.75213 86.8575L6.75229 86.8257ZM11.1309 74.6453C10.9531 75.4544 10.153 75.9662 9.34389 75.7884C8.53477 75.6106 8.02297 74.8106 8.20077 74.0014L11.1309 74.6453ZM12.2747 61.7575C12.6163 61.0028 13.5051 60.6679 14.2598 61.0096C15.0145 61.3512 15.3494 62.2399 15.0078 62.9946L12.2747 61.7575ZM21.1568 52.3432C20.6768 53.0184 19.7403 53.1767 19.0651 52.6967C18.3899 52.2167 18.2316 51.2803 18.7116 50.605L21.1568 52.3432ZM27.0294 40.7904C27.6137 40.2033 28.5635 40.201 29.1507 40.7854C29.7378 41.3698 29.7401 42.3196 29.1557 42.9067L27.0294 40.7904ZM38.5028 34.7408C37.8449 35.2443 36.9035 35.1192 36.4 34.4614C35.8965 33.8035 36.0216 32.862 36.6794 32.3585L38.5028 34.7408ZM47.249 25.169C47.9573 24.7394 48.8798 24.9652 49.3095 25.6735C49.7392 26.3818 49.5133 27.3043 48.805 27.734L47.249 25.169ZM59.7258 21.7614C58.983 22.1282 58.0835 21.8234 57.7167 21.0807C57.3499 20.3379 57.6546 19.4383 58.3974 19.0715L59.7258 21.7614ZM69.9879 13.864C70.7548 13.5505 71.6305 13.9179 71.9441 14.6848C72.2576 15.4516 71.8901 16.3273 71.1233 16.6409L69.9879 13.864ZM82.872 12.2451C82.0882 12.5133 81.2354 12.0954 80.9672 11.3116C80.6989 10.5278 81.1169 9.67495 81.9007 9.40672L82.872 12.2451ZM94.0099 5.59973C94.8059 5.37011 95.6373 5.82922 95.8669 6.6252C96.0965 7.42116 95.6374 8.25257 94.8414 8.48219L94.0099 5.59973ZM106.943 5.26786C106.138 5.46435 105.326 4.97122 105.13 4.16644C104.933 3.36165 105.427 2.54995 106.231 2.35347L106.943 5.26786ZM13.6357 118.019C12.7688 116.122 11.9517 114.136 11.2042 112.073L14.0248 111.051C14.7439 113.036 15.5301 114.946 16.3643 116.772L13.6357 118.019ZM7.8496 99.6621C7.10884 95.5411 6.70538 91.2402 6.75229 86.8257L9.75213 86.8575C9.70737 91.0688 10.0922 95.1809 10.8023 99.1313L7.8496 99.6621ZM8.20077 74.0014C9.0932 69.9399 10.4255 65.8428 12.2747 61.7575L15.0078 62.9946C13.2466 66.8853 11.9795 70.7832 11.1309 74.6453L8.20077 74.0014ZM18.7116 50.605C21.0729 47.2832 23.8317 44.0033 27.0294 40.7904L29.1557 42.9067C26.07 46.0071 23.4187 49.1612 21.1568 52.3432L18.7116 50.605ZM36.6794 32.3585C39.8915 29.9001 43.4077 27.4994 47.249 25.169L48.805 27.734C45.0507 30.0115 41.6243 32.3517 38.5028 34.7408L36.6794 32.3585ZM58.3974 19.0715C62.0269 17.2791 65.8865 15.541 69.9879 13.864L71.1233 16.6409C67.0836 18.2926 63.2886 20.0019 59.7258 21.7614L58.3974 19.0715ZM81.9007 9.40672C85.7536 8.08818 89.7876 6.81778 94.0099 5.59973L94.8414 8.48219C90.6639 9.68733 86.6766 10.9431 82.872 12.2451L81.9007 9.40672ZM106.231 2.35347C108.272 1.85524 110.351 1.36818 112.47 0.89265L113.127 3.81985C111.026 4.29136 108.965 4.77416 106.943 5.26786L106.231 2.35347Z" fill="url(#paint0_linear_2050_599)"/>
<defs>
<linearGradient id="paint0_linear_2050_599" x1="-1.0027" y1="94.4191" x2="118.803" y2="10.9765" gradientUnits="userSpaceOnUse">
<stop stop-color="#E48606"/>
<stop offset="1" stop-color="#BE4117"/>
</linearGradient>
</defs>
</svg>
