<svg width="183" height="108" viewBox="0 0 183 108" fill="none" xmlns="http://www.w3.org/2000/svg">
<path id="Vector 1" d="M2.34132 86.1768C1.51667 86.2558 0.912207 86.9883 0.991212 87.813L2.27867 101.251C2.35767 102.076 3.09023 102.681 3.91488 102.602C4.73953 102.523 5.344 101.79 5.265 100.965L4.12059 89.02L16.0659 87.8756C16.8905 87.7966 17.495 87.0641 17.416 86.2394C17.337 85.4148 16.6044 84.8103 15.7798 84.8893L2.34132 86.1768ZM182.789 2.26662C183.213 1.55456 182.979 0.634087 182.267 0.210699C181.555 -0.212687 180.634 0.021331 180.211 0.73339L182.789 2.26662ZM6.63563 92.7303C7.31198 93.2087 8.24807 93.0482 8.72645 92.3719C9.20482 91.6955 9.04434 90.7594 8.36799 90.2811L6.63563 92.7303ZM19.0223 96.6758C18.2816 96.3047 17.3803 96.6042 17.0092 97.3448C16.638 98.0854 16.9375 98.9867 17.6782 99.3579L19.0223 96.6758ZM29.6189 104.21C30.4088 104.46 31.2515 104.022 31.5011 103.232C31.7507 102.442 31.3127 101.599 30.5228 101.35L29.6189 104.21ZM42.619 104.103C41.7988 103.987 41.0396 104.557 40.9233 105.377C40.807 106.198 41.3777 106.957 42.1979 107.073L42.619 104.103ZM55.0598 107.817C55.888 107.797 56.5428 107.109 56.5224 106.281C56.502 105.453 55.8141 104.798 54.986 104.818L55.0598 107.817ZM67.3276 103.525C66.5128 103.675 65.974 104.457 66.1241 105.272C66.2741 106.087 67.0562 106.626 67.8709 106.475L67.3276 103.525ZM80.3218 103.232C81.107 102.968 81.5293 102.117 81.265 101.332C81.0007 100.547 80.15 100.125 79.3649 100.389L80.3218 103.232ZM90.8962 95.6722C90.1498 96.0315 89.836 96.9279 90.1954 97.6744C90.5547 98.4208 91.4511 98.7346 92.1976 98.3752L90.8962 95.6722ZM103.413 92.2055C104.117 91.7695 104.335 90.845 103.899 90.1406C103.463 89.4362 102.538 89.2187 101.834 89.6547L103.413 92.2055ZM112.191 82.5645C111.529 83.0617 111.395 84.002 111.892 84.6646C112.389 85.3272 113.329 85.4614 113.992 84.9642L112.191 82.5645ZM123.875 76.9348C124.498 76.3893 124.562 75.4417 124.016 74.8182C123.471 74.1947 122.523 74.1315 121.9 74.6769L123.875 76.9348ZM131.116 66.0615C130.529 66.6458 130.526 67.5956 131.111 68.1828C131.695 68.7701 132.645 68.7724 133.232 68.1881L131.116 66.0615ZM141.978 58.987C142.532 58.3716 142.483 57.4232 141.868 56.8685C141.252 56.3139 140.304 56.3632 139.749 56.9785L141.978 58.987ZM147.937 47.4428C147.412 48.0836 147.505 49.0287 148.146 49.5538C148.787 50.0789 149.732 49.9852 150.257 49.3444L147.937 47.4428ZM158.111 39.3415C158.609 38.6798 158.477 37.7393 157.815 37.2409C157.154 36.7424 156.213 36.8748 155.715 37.5364L158.111 39.3415ZM163.113 27.3303C162.639 28.0095 162.805 28.9446 163.484 29.419C164.163 29.8934 165.099 29.7273 165.573 29.0482L163.113 27.3303ZM172.678 18.5164C173.131 17.8225 172.935 16.8931 172.241 16.4405C171.547 15.988 170.618 16.1836 170.165 16.8775L172.678 18.5164ZM176.902 6.21559C176.469 6.92199 176.691 7.84547 177.398 8.27823C178.104 8.71099 179.028 8.48915 179.46 7.78275L176.902 6.21559ZM1.5297 88.8269C3.14343 90.1585 4.84654 91.4649 6.63563 92.7303L8.36799 90.2811C6.64077 89.0594 4.99665 87.7982 3.43905 86.5129L1.5297 88.8269ZM17.6782 99.3579C21.4123 101.229 25.399 102.877 29.6189 104.21L30.5228 101.35C26.4622 100.067 22.6224 98.48 19.0223 96.6758L17.6782 99.3579ZM42.1979 107.073C46.3225 107.658 50.6145 107.927 55.0598 107.817L54.986 104.818C50.7098 104.924 46.5833 104.665 42.619 104.103L42.1979 107.073ZM67.8709 106.475C71.9239 105.729 76.0772 104.661 80.3218 103.232L79.3649 100.389C75.2528 101.773 71.2377 102.805 67.3276 103.525L67.8709 106.475ZM92.1976 98.3752C95.8804 96.6022 99.6205 94.5531 103.413 92.2055L101.834 89.6547C98.1278 91.9488 94.4802 93.9467 90.8962 95.6722L92.1976 98.3752ZM113.992 84.9642C117.253 82.5169 120.549 79.8448 123.875 76.9348L121.9 74.6769C118.627 77.5397 115.39 80.1642 112.191 82.5645L113.992 84.9642ZM133.232 68.1881C136.127 65.3075 139.043 62.2433 141.978 58.987L139.749 56.9785C136.849 60.196 133.971 63.2208 131.116 66.0615L133.232 68.1881ZM150.257 49.3444C152.862 46.166 155.48 42.8335 158.111 39.3415L155.715 37.5364C153.108 40.997 150.515 44.2972 147.937 47.4428L150.257 49.3444ZM165.573 29.0482C167.933 25.6696 170.301 22.1603 172.678 18.5164L170.165 16.8775C167.805 20.4957 165.454 23.9786 163.113 27.3303L165.573 29.0482ZM179.46 7.78275C180.568 5.97393 181.678 4.13535 182.789 2.26662L180.211 0.73339C179.106 2.59094 178.003 4.4182 176.902 6.21559L179.46 7.78275Z" fill="url(#paint0_linear_2021_378)"/>
<defs>
<linearGradient id="paint0_linear_2021_378" x1="23.5344" y1="113.599" x2="173.602" y2="-8.22821" gradientUnits="userSpaceOnUse">
<stop stop-color="#E48606"/>
<stop offset="1" stop-color="#BE4117"/>
</linearGradient>
</defs>
</svg>
