<svg width="46" height="60" viewBox="0 0 46 60" fill="none" xmlns="http://www.w3.org/2000/svg">
<path d="M0.359074 39.6999C0.480754 40.145 0.693886 40.5599 0.984869 40.918C1.27585 41.2761 1.6383 41.5697 2.04907 41.7799L3.13907 42.3499C3.41504 42.4896 3.65133 42.6966 3.82612 42.9518C4.0009 43.207 4.10854 43.5021 4.13907 43.8099C4.48907 48.8099 7.00907 51.8099 11.0391 51.9499C11.1091 51.9471 11.1774 51.9716 11.2296 52.0183C11.2819 52.0649 11.3139 52.1301 11.3191 52.1999V56.3999C11.3164 56.8726 11.4074 57.3411 11.5868 57.7784C11.7661 58.2157 12.0303 58.6132 12.3641 58.9478C12.6978 59.2825 13.0945 59.5478 13.5314 59.7284C13.9682 59.909 14.4364 60.0012 14.9091 59.9999H28.5091C29.4621 59.9973 30.3752 59.6168 31.0482 58.942C31.7212 58.2671 32.0991 57.353 32.0991 56.3999V45.7899C32.1009 45.5104 32.1656 45.2349 32.2885 44.9839C32.4115 44.7328 32.5894 44.5127 32.8091 44.3399C35.915 41.9098 38.1176 38.5096 39.0655 34.6816C40.0134 30.8537 39.6521 26.8185 38.0391 23.2199L41.2191 21.7799C41.6451 21.5483 41.9973 21.2014 42.2352 20.7789C42.4731 20.3563 42.5871 19.8753 42.5641 19.3909C42.5411 18.9066 42.3821 18.4385 42.1053 18.0403C41.8285 17.6422 41.4451 17.3301 40.9991 17.1399L38.6891 16.1399L44.5291 13.3699L44.6791 13.2799C45.0562 13.0144 45.3552 12.6528 45.5451 12.2325C45.7349 11.8123 45.8087 11.3488 45.7587 10.8904C45.7086 10.4319 45.5367 9.99527 45.2606 9.62587C44.9846 9.25646 44.6145 8.96779 44.1891 8.78991L39.4291 6.78991C38.9537 6.5899 38.4295 6.53635 37.9235 6.63612C37.4176 6.73589 36.9529 6.98443 36.5891 7.34991L29.3291 13.7299C29.1953 13.867 29.0809 14.0218 28.9891 14.1899C28.6291 14.0399 28.2791 13.8899 27.9191 13.7599C28.0956 13.3374 28.1643 12.8777 28.1189 12.4221C28.0735 11.9664 27.9155 11.5292 27.6591 11.1499C27.3579 10.7212 26.9421 10.386 26.4593 10.1827C25.9765 9.97928 25.4462 9.91595 24.9291 9.99991L21.8291 10.4499L25.9991 4.07991C26.0316 4.02974 26.0585 3.97607 26.0791 3.91991C26.2829 3.46093 26.3585 2.95531 26.298 2.45678C26.2375 1.95824 26.0431 1.48541 25.7354 1.0885C25.4278 0.6916 25.0183 0.385452 24.5506 0.202583C24.0829 0.0197143 23.5744 -0.0330453 23.0791 0.0499097L17.2991 0.87991C16.7597 0.976383 16.2602 1.22847 15.8622 1.60513C15.4642 1.9818 15.1851 2.46662 15.0591 2.99991L11.7591 13.4199C11.6841 13.7867 11.6826 14.1647 11.7547 14.532C11.8268 14.8993 11.971 15.2487 12.1791 15.5599C9.6995 17.1678 7.66197 19.3709 6.25236 21.9683C4.84274 24.5657 4.10591 27.4747 4.10907 30.4299C4.10907 30.8499 4.10907 31.2599 4.15907 31.6599L0.759074 37.0599C0.514413 37.4488 0.35261 37.8839 0.283784 38.3382C0.214958 38.7924 0.240589 39.256 0.359074 39.6999ZM30.6891 15.1899L37.9191 8.83991L37.9791 8.76991C38.0947 8.65799 38.2482 8.59372 38.4091 8.58991C38.4851 8.5909 38.5601 8.60794 38.6291 8.63991L43.3991 10.6399C43.4959 10.68 43.5798 10.746 43.6415 10.8307C43.7033 10.9154 43.7405 11.0155 43.7491 11.1199C43.7599 11.2109 43.7482 11.3032 43.7151 11.3886C43.682 11.474 43.6284 11.55 43.5591 11.6099L37.1591 14.6099C36.8644 14.7467 36.6161 14.9665 36.4444 15.2423C36.2728 15.5181 36.1853 15.838 36.1927 16.1628C36.2002 16.4876 36.3022 16.8032 36.4862 17.0709C36.6703 17.3385 36.9285 17.5467 37.2291 17.6699L40.2291 18.9299C40.3329 18.9696 40.4226 19.0393 40.4867 19.1301C40.5508 19.2209 40.5865 19.3288 40.5891 19.4399C40.6013 19.5364 40.5863 19.6344 40.5456 19.7228C40.505 19.8112 40.4403 19.8864 40.3591 19.9399L36.2891 21.7899L28.8391 25.1699C28.5391 25.3299 28.2691 25.3499 28.1891 25.2299C28.1597 25.1582 28.1535 25.0792 28.1715 25.0038C28.1894 24.9285 28.2305 24.8606 28.2891 24.8099L34.1791 20.1099C34.4149 19.9321 34.5997 19.6953 34.7148 19.4233C34.8299 19.1514 34.8713 18.8539 34.8348 18.5608C34.7983 18.2677 34.6852 17.9895 34.5068 17.7541C34.3285 17.5187 34.0913 17.3344 33.8191 17.2199L30.9991 16.0699C30.913 16.032 30.8373 15.9742 30.7782 15.9011C30.719 15.8281 30.6782 15.7419 30.6591 15.6499C30.6298 15.5758 30.6173 15.4961 30.6225 15.4165C30.6277 15.337 30.6504 15.2596 30.6891 15.1899ZM16.9991 3.55991C16.9991 3.55991 16.9991 3.49991 16.9991 3.46991C17.0353 3.31383 17.1176 3.17223 17.2353 3.06347C17.353 2.95471 17.5006 2.88379 17.6591 2.85991L23.4391 1.99991C23.5789 1.9797 23.7217 1.99787 23.852 2.05247C23.9823 2.10707 24.0954 2.19605 24.1791 2.30991C24.2596 2.41125 24.3137 2.53103 24.3364 2.65847C24.3591 2.78591 24.3497 2.917 24.3091 3.03991L19.8791 9.71991C19.6901 10.0047 19.5877 10.3381 19.5841 10.6799C19.5806 11.0216 19.676 11.3571 19.8589 11.6458C20.0419 11.9345 20.3045 12.1641 20.6151 12.3067C20.9256 12.4494 21.2709 12.4992 21.6091 12.4499L25.2191 11.9999C25.3666 11.9744 25.5185 11.9931 25.6554 12.0536C25.7924 12.1141 25.9085 12.2137 25.9891 12.3399C26.0696 12.4498 26.1186 12.5795 26.1309 12.7152C26.1433 12.8509 26.1184 12.9873 26.0591 13.1099L17.9991 24.8399C17.7591 25.2399 17.4591 25.4299 17.2391 25.3299C17.1293 25.2721 17.0443 25.1762 17.0001 25.0602C16.956 24.9442 16.9556 24.8161 16.9991 24.6999L19.9491 16.6999C20.0566 16.4323 20.0972 16.1424 20.0671 15.8555C20.0371 15.5686 19.9374 15.2934 19.7767 15.0539C19.616 14.8143 19.3992 14.6177 19.1451 14.481C18.8911 14.3444 18.6075 14.2719 18.3191 14.2699C18.2293 14.26 18.1388 14.26 18.0491 14.2699L14.5991 14.7699C14.481 14.8 14.3572 14.8 14.2391 14.7699C14.128 14.7319 14.0283 14.6666 13.9491 14.5799C13.8695 14.4988 13.8085 14.4013 13.7705 14.2942C13.7325 14.1871 13.7184 14.073 13.7291 13.9599L16.9991 3.55991ZM2.44907 38.1199L5.99907 32.4399C6.11542 32.2552 6.1681 32.0374 6.14907 31.8199C6.14907 31.3599 6.07907 30.8999 6.07907 30.4199C6.08299 27.6385 6.82577 24.908 8.23142 22.5078C9.63706 20.1077 11.6551 18.1241 14.0791 16.7599C14.3543 16.8 14.6339 16.8 14.9091 16.7599L17.9991 16.3299L15.0991 24.0899C14.901 24.6757 14.9262 25.314 15.1698 25.8824C15.4134 26.4508 15.8583 26.9093 16.4191 27.1699C16.71 27.294 17.0228 27.3586 17.3391 27.3599C17.8149 27.3469 18.2789 27.2089 18.6844 26.9596C19.09 26.7103 19.4227 26.3586 19.6491 25.9399L26.7991 15.5099C27.461 15.7213 28.1061 15.9821 28.7291 16.2899C28.8366 16.6485 29.0212 16.9793 29.2699 17.2591C29.5187 17.539 29.8255 17.7611 30.1691 17.9099L32.5191 18.9099L26.9991 23.3499C26.5671 23.727 26.2865 24.2479 26.2093 24.8161C26.1321 25.3843 26.2634 25.9612 26.5791 26.4399C26.7889 26.731 27.0655 26.9673 27.3857 27.1292C27.7059 27.291 28.0603 27.3736 28.4191 27.3699C28.8612 27.3411 29.2916 27.2148 29.6791 26.9999L36.2291 23.9999C37.6562 27.1913 37.9737 30.7686 37.1309 34.1615C36.2882 37.5543 34.3337 40.5673 31.5791 42.7199C31.1244 43.0774 30.7562 43.5328 30.5017 44.0522C30.2472 44.5715 30.113 45.1416 30.1091 45.7199V56.3199C30.1199 56.5367 30.0866 56.7533 30.011 56.9568C29.9355 57.1602 29.8194 57.3462 29.6697 57.5034C29.52 57.6605 29.34 57.7856 29.1404 57.8709C28.9409 57.9563 28.7261 58.0002 28.5091 57.9999H14.9091C14.49 57.9999 14.0882 57.8334 13.7918 57.5371C13.4955 57.2408 13.3291 56.8389 13.3291 56.4199V52.1999C13.3139 51.6212 13.0772 51.0704 12.6679 50.6611C12.2586 50.2517 11.7078 50.0151 11.1291 49.9999C7.36907 49.8299 6.33907 46.4899 6.12907 43.7099C6.07384 43.0604 5.85504 42.4355 5.49308 41.8935C5.13112 41.3514 4.63778 40.9098 4.05907 40.6099L2.99907 39.9999C2.8351 39.9171 2.69037 39.8007 2.57429 39.6584C2.4582 39.516 2.37336 39.3508 2.32527 39.1735C2.27717 38.9962 2.2669 38.8108 2.29512 38.6293C2.32334 38.4478 2.38942 38.2742 2.48907 38.1199H2.44907Z" fill="#47ABA6"/>
</svg>
