<svg width="64" height="64" viewBox="0 0 64 64" fill="none" xmlns="http://www.w3.org/2000/svg">
<g id="Icons">
<path id="Vector" d="M12.6948 11.5418C13.601 14.3486 15.8763 18.5025 21.5597 22.7033C22.3245 23.2596 22.9456 23.9744 23.3757 24.7931C23.8058 25.6118 24.0337 26.513 24.0419 27.4279V27.5683C24.0487 31.3769 23.1603 35.139 21.4415 38.58L14.5465 52.3517C13.9091 53.6283 13.8317 55.0932 14.3314 56.424C14.8311 57.7548 15.8669 58.8426 17.2109 59.4481C18.555 60.0535 20.0972 60.127 21.4983 59.6524C22.8995 59.1778 24.0447 58.1939 24.6821 56.9173C24.6821 56.9173 24.6821 56.8518 24.6821 56.8144L31.4195 37.8035C31.4508 37.713 31.5115 37.6344 31.593 37.5789C31.6744 37.5234 31.7723 37.4939 31.8725 37.4947C31.9722 37.4903 32.0707 37.5172 32.1526 37.5713C32.2346 37.6255 32.2954 37.7038 32.3256 37.7941C34.798 44.2215 39.5555 56.8331 39.5949 56.9173C40.2323 58.2051 41.3822 59.1997 42.7916 59.6822C44.2011 60.1647 45.7546 60.0956 47.1104 59.4902C48.4662 58.8847 49.5133 57.7925 50.0212 56.4538C50.5292 55.1151 50.4565 53.6395 49.8191 52.3517L42.9242 38.5519C41.2264 35.1438 40.3387 31.4228 40.3238 27.6525V26.7169C40.3246 25.8303 40.5327 24.955 40.933 24.1541C41.3332 23.3533 41.9158 22.6468 42.6385 22.0858C47.7506 18.0909 49.8289 14.1708 50.676 11.5793C50.8257 11.1104 51.0067 10.651 51.2178 10.204C51.7202 9.19057 51.7918 8.03214 51.4176 6.96989C51.0433 5.90764 50.2521 5.02343 49.2087 4.50137C48.1653 3.97932 46.9501 3.85966 45.8162 4.1673C44.6822 4.47494 43.7169 5.18618 43.1212 6.15292C42.6311 7.05914 42.2353 8.00856 41.9392 8.98772C41.3729 10.5533 40.4554 11.9834 39.2501 13.1791C39.2501 13.0201 39.2501 12.8704 39.2501 12.702C39.2501 10.7914 38.4511 8.959 37.0287 7.608C35.6063 6.257 33.6772 5.49802 31.6657 5.49802C29.6542 5.49802 27.7251 6.257 26.3027 7.608C24.8803 8.959 24.0813 10.7914 24.0813 12.702C24.0813 12.8704 24.0813 13.0294 24.0813 13.1978C22.875 12.0012 21.9544 10.5716 21.3824 9.00643C21.0818 8.03638 20.6826 7.09639 20.1905 6.1997C19.5966 5.23289 18.6332 4.52072 17.5007 4.21128C16.3681 3.90184 15.1536 4.01894 14.1096 4.53824C13.0657 5.05753 12.2726 5.93906 11.8953 6.99951C11.5181 8.05995 11.5857 9.21771 12.0841 10.232C12.3236 10.6527 12.5278 11.0907 12.6948 11.5418ZM31.6952 7.35981C32.8061 7.35982 33.892 7.67281 34.8155 8.2592C35.739 8.84559 36.4586 9.67901 36.8833 10.654C37.3079 11.629 37.4185 12.7017 37.2011 13.7364C36.9837 14.7711 36.448 15.7213 35.6618 16.4668C34.8756 17.2122 33.8743 17.7194 32.7845 17.9241C31.6948 18.1288 30.5656 18.0218 29.5399 17.6168C28.5141 17.2117 27.6379 16.5267 27.0222 15.6485C26.4065 14.7703 26.0788 13.7384 26.0808 12.6832C26.0834 11.2705 26.6761 9.91651 27.7287 8.91844C28.7813 7.92037 30.2079 7.35981 31.6952 7.35981ZM15.0095 5.97516C15.6228 5.67482 16.3361 5.6164 16.9944 5.81259C17.6528 6.00878 18.2031 6.44373 18.5259 7.02301C18.9485 7.83115 19.2946 8.67336 19.5602 9.53971C20.1413 11.3079 21.6877 14.1147 25.7853 17.1459C26.4968 18.0049 27.4056 18.6981 28.4421 19.1727C29.4786 19.6473 30.6156 19.8907 31.7663 19.8844C32.917 19.8781 34.0509 19.6222 35.0816 19.1362C36.1123 18.6503 37.0125 17.9472 37.7135 17.0805C41.7422 14.0585 43.2787 11.3173 43.8599 9.53035C44.1234 8.65897 44.4729 7.81319 44.904 7.00429C45.242 6.4484 45.7937 6.03869 46.4433 5.86134C47.0928 5.684 47.7894 5.75286 48.3866 6.05343C48.9838 6.354 49.4349 6.86285 49.6451 7.47293C49.8554 8.08301 49.8083 8.74676 49.5137 9.32452C49.247 9.86405 49.0199 10.4205 48.8341 10.9899C48.0757 13.3381 46.1746 16.9027 41.4368 20.6076C40.4878 21.3419 39.7231 22.2679 39.1983 23.3182C38.6735 24.3686 38.4018 25.5168 38.403 26.6795V27.6618C38.4066 31.7112 39.3482 35.7102 41.161 39.3753L48.056 53.1844C48.2644 53.5926 48.3848 54.0363 48.4102 54.4894C48.4356 54.9424 48.3654 55.3958 48.2037 55.8227C48.0429 56.2509 47.7948 56.6447 47.4737 56.9818C47.1526 57.319 46.7647 57.5927 46.3322 57.7874C45.8479 58.0018 45.3202 58.1135 44.7858 58.1149C44.1136 58.1139 43.4548 57.9359 42.8827 57.6006C42.3106 57.2653 41.8476 56.7859 41.5452 56.2156C41.5452 56.2156 36.7483 43.5853 34.2759 37.1486C34.1003 36.6972 33.7813 36.3089 33.3631 36.0373C32.9448 35.7658 32.448 35.6245 31.9415 35.6329C31.4339 35.6347 30.9399 35.7885 30.5296 36.0724C30.1194 36.3562 29.8138 36.7557 29.6563 37.2141L22.9288 56.1595C22.6281 56.7372 22.1636 57.2236 21.5876 57.5641C21.0116 57.9046 20.3469 58.0856 19.6685 58.0868C19.131 58.0853 18.6001 57.9736 18.1122 57.7593C17.2442 57.3627 16.5761 56.6566 16.2534 55.7946C15.9306 54.9327 15.9791 53.9845 16.3885 53.1563L23.2834 39.3846C25.1221 35.6904 26.0742 31.6545 26.0709 27.5683V27.4279C26.0669 26.2274 25.7725 25.0437 25.2107 23.9683C24.6488 22.8928 23.8344 21.9543 22.8303 21.2251C17.5311 17.3237 15.4429 13.5066 14.6155 10.9992C14.4422 10.4197 14.2148 9.85615 13.9358 9.31517C13.62 8.73557 13.5554 8.06156 13.7561 7.43736C13.9567 6.81315 14.4066 6.28832 15.0095 5.97516Z" fill="#47ABA6"/>
</g>
</svg>
