<svg width="64" height="64" viewBox="0 0 64 64" fill="none" xmlns="http://www.w3.org/2000/svg">
<path d="M59.22 39.91C55.79 34.41 39.22 33.61 29.37 33.66C26.84 33.66 24.85 35.22 24.85 37.21V39.85H22.78V38.85C22.7564 37.292 22.1215 35.8056 21.0123 34.7113C19.903 33.617 18.4082 33.0024 16.85 33H8.85V30.54C8.84735 29.6612 8.4964 28.8193 7.87407 28.1988C7.25173 27.5784 6.40879 27.23 5.53 27.23H5.33C4.89364 27.2273 4.46107 27.311 4.05718 27.4762C3.65328 27.6413 3.28602 27.8847 2.97654 28.1923C2.66705 28.5 2.42145 28.8657 2.25386 29.2686C2.08627 29.6715 1.99999 30.1036 2 30.54V55C2 55.8787 2.34841 56.7217 2.96887 57.344C3.58933 57.9664 4.43122 58.3173 5.31 58.32H5.47C5.90767 58.3226 6.34154 58.2387 6.74665 58.073C7.15176 57.9073 7.52012 57.6632 7.83053 57.3547C8.14095 57.0461 8.38729 56.6792 8.55538 56.2751C8.72348 55.871 8.81001 55.4376 8.81 55V46.62H51.76V54.82C51.7626 55.7395 52.1291 56.6205 52.7793 57.2707C53.4294 57.9209 54.3105 58.2873 55.23 58.29H55.41C56.3295 58.2873 57.2106 57.9209 57.8607 57.2707C58.5109 56.6205 58.8774 55.7395 58.88 54.82V46.6C59.721 46.5564 60.5134 46.1921 61.0938 45.5819C61.6742 44.9717 61.9986 44.1621 62 43.32V43.16C61.9999 42.3758 61.7198 41.6175 61.2101 41.0216C60.7004 40.4258 59.9947 40.0315 59.22 39.91ZM26.85 37.21C26.85 36.48 27.85 35.66 29.38 35.66H29.91C43.28 35.66 52.97 37.23 56.45 39.85H26.85V37.21ZM16.85 35C17.8932 35.0026 18.8928 35.4189 19.6295 36.1575C20.3663 36.8961 20.78 37.8967 20.78 38.94V39.94H8.78V35H16.85ZM6.85 55C6.85 55.35 6.71093 55.6858 6.46338 55.9333C6.21583 56.1809 5.88009 56.32 5.53 56.32H5.33C5.15582 56.3213 4.98309 56.2881 4.82179 56.2224C4.66048 56.1566 4.51378 56.0596 4.39015 55.9369C4.26651 55.8142 4.16839 55.6682 4.10143 55.5074C4.03447 55.3466 3.99999 55.1742 4 55V30.54C4 30.1925 4.13802 29.8593 4.38369 29.6137C4.62936 29.368 4.96257 29.23 5.31 29.23H5.47C5.81836 29.23 6.1526 29.3676 6.39986 29.613C6.64713 29.8584 6.78736 30.1916 6.79 30.54V55H6.85ZM56.92 54.85C56.92 55.2398 56.7651 55.6137 56.4894 55.8894C56.2138 56.1651 55.8399 56.32 55.45 56.32H55.27C54.8801 56.32 54.5062 56.1651 54.2306 55.8894C53.9549 55.6137 53.8 55.2398 53.8 54.85V46.65H56.92V54.85ZM60 43.32C60 43.6647 59.863 43.9954 59.6192 44.2392C59.3754 44.483 59.0448 44.62 58.7 44.62H8.81V41.85H58.68C58.8529 41.8486 59.0243 41.8816 59.1844 41.9468C59.3445 42.012 59.4901 42.1083 59.6128 42.2301C59.7355 42.3519 59.8329 42.4967 59.8993 42.6563C59.9658 42.8159 60 42.9871 60 43.16V43.32ZM42.09 5.70996C39.7641 5.70996 37.4904 6.39967 35.5565 7.69188C33.6226 8.98408 32.1153 10.8207 31.2252 12.9696C30.3351 15.1185 30.1022 17.483 30.556 19.7642C31.0097 22.0454 32.1298 24.1409 33.7744 25.7855C35.4191 27.4302 37.5145 28.5502 39.7957 29.004C42.077 29.4578 44.4415 29.2249 46.5904 28.3348C48.7392 27.4447 50.5759 25.9374 51.8681 24.0035C53.1603 22.0695 53.85 19.7959 53.85 17.47C53.8447 14.3526 52.604 11.3645 50.3997 9.16023C48.1955 6.95594 45.2073 5.71525 42.09 5.70996ZM42.09 27.23C40.1597 27.23 38.2727 26.6575 36.6676 25.5851C35.0626 24.5127 33.8116 22.9884 33.0729 21.205C32.3342 19.4215 32.1409 17.4591 32.5175 15.5659C32.8941 13.6726 33.8237 11.9336 35.1886 10.5686C36.5536 9.20364 38.2927 8.27409 40.1859 7.8975C42.0792 7.52091 44.0416 7.71419 45.825 8.4529C47.6084 9.19161 49.1327 10.4426 50.2051 12.0476C51.2776 13.6526 51.85 15.5396 51.85 17.47C51.8474 20.0577 50.8182 22.5386 48.9884 24.3684C47.1587 26.1982 44.6777 27.2273 42.09 27.23ZM42.09 10.23C40.6521 10.23 39.2465 10.6563 38.051 11.4552C36.8555 12.254 35.9236 13.3894 35.3734 14.7179C34.8231 16.0463 34.6792 17.508 34.9597 18.9183C35.2402 20.3285 35.9326 21.6239 36.9493 22.6406C37.9661 23.6574 39.2615 24.3498 40.6717 24.6303C42.0819 24.9108 43.5437 24.7668 44.8721 24.2166C46.2005 23.6663 47.3359 22.7345 48.1348 21.539C48.9336 20.3434 49.36 18.9378 49.36 17.5C49.3626 16.5431 49.1766 15.5951 48.8125 14.7102C48.4485 13.8253 47.9136 13.0208 47.2384 12.3428C46.5631 11.6648 45.7609 11.1266 44.8775 10.7589C43.9941 10.3912 43.0469 10.2013 42.09 10.2V10.23ZM42.09 22.77C41.0477 22.77 40.0288 22.4609 39.1621 21.8818C38.2955 21.3027 37.62 20.4797 37.2212 19.5167C36.8223 18.5537 36.7179 17.4941 36.9213 16.4718C37.1246 15.4496 37.6265 14.5105 38.3635 13.7735C39.1006 13.0365 40.0396 12.5346 41.0619 12.3312C42.0842 12.1279 43.1438 12.2322 44.1067 12.6311C45.0697 13.03 45.8928 13.7055 46.4718 14.5721C47.0509 15.4388 47.36 16.4577 47.36 17.5C47.3495 18.8916 46.7899 20.2229 45.803 21.2041C44.8161 22.1854 43.4817 22.7374 42.09 22.74V22.77ZM44.19 18C44.3429 18.1348 44.4509 18.3131 44.4996 18.5111C44.5483 18.709 44.5354 18.9172 44.4625 19.1075C44.3896 19.2979 44.2603 19.4615 44.0918 19.5763C43.9234 19.6911 43.7239 19.7517 43.52 19.75C43.2722 19.7493 43.0334 19.6567 42.85 19.49L41.43 18.22C41.3233 18.1263 41.2378 18.0109 41.1792 17.8816C41.1206 17.7523 41.0902 17.6119 41.09 17.47V14.47C41.09 14.2047 41.1954 13.9504 41.3829 13.7629C41.5704 13.5753 41.8248 13.47 42.09 13.47C42.3552 13.47 42.6096 13.5753 42.7971 13.7629C42.9846 13.9504 43.09 14.2047 43.09 14.47V17L44.19 18Z" fill="#47ABA6"/>
</svg>
