<svg width="224" height="24" viewBox="0 0 224 24" fill="none" xmlns="http://www.w3.org/2000/svg">
<path d="M29.9251 12.0499V20.888C29.9251 22.0213 30.4858 22.8968 31.1301 23.5328H25.1328C25.7598 22.8968 26.3059 22.0213 26.3059 20.888V3.34212C26.3059 2.20804 25.7934 1.26965 25.1328 0.595703H31.1301C30.4522 1.26965 29.9251 2.29281 29.9251 3.34212V10.5877H42.2667V3.34212C42.2667 2.17051 41.8266 1.26965 41.1268 0.595703H47.0305C46.329 1.26965 45.8876 2.23166 45.8876 3.34212V20.888C45.8876 21.9572 46.3755 22.8968 47.0473 23.5328H41.0923C41.793 22.8968 42.2671 21.9576 42.2671 20.8239V12.0499H29.9251Z" fill="#22201E"/>
<path d="M68.1246 23.5324H52.5742C53.2465 22.8964 53.7469 21.9989 53.7469 20.8876V3.34212C53.7469 2.29323 53.2555 1.26965 52.6199 0.595703H68.6685L67.731 2.97857C66.9506 2.28016 66.175 2.05537 64.9223 2.05537H57.3656V10.5784C59.5546 10.5784 61.8758 10.5751 64.421 10.5751C65.2883 10.5751 66.1742 10.4591 67.1479 10.1403L66.045 12.7445C65.3322 12.1094 64.5993 12.0335 63.3155 12.0335H57.3656V22.0289C58.8669 22.0289 59.4138 22.0411 60.9431 22.0411C61.6666 22.0411 67.2116 22.0234 69.4803 20.4355L68.1246 23.5324Z" fill="#22201E"/>
<path d="M198.11 23.5324H182.559C183.228 22.8964 183.731 21.9989 183.731 20.8876V3.34212C183.731 2.29323 183.245 1.26965 182.606 0.595703H198.652L197.714 2.97857C196.938 2.28016 196.163 2.05537 194.906 2.05537H187.351V10.5784C189.538 10.5784 191.86 10.5751 194.404 10.5751C195.271 10.5751 196.16 10.4591 197.13 10.1403L196.029 12.7445C195.316 12.1094 194.584 12.0335 193.299 12.0335H187.351V22.0289C188.853 22.0289 189.399 22.0411 190.93 22.0411C191.649 22.0411 197.197 22.0234 199.465 20.4355L198.11 23.5324Z" fill="#22201E"/>
<path d="M88.0996 3.31513V10.5789V12.0339V22.0293C89.6396 22.0293 90.5607 22.0415 92.0908 22.0415C92.8135 22.0415 98.0868 21.9614 100.485 20.2445L99.0579 23.5324H83.3047C83.9765 22.8964 84.4782 21.9766 84.4782 20.867V3.34212C84.4782 2.29323 83.9903 1.26965 83.3546 0.595703C83.5756 0.595703 89.1861 0.595703 89.3222 0.595703C88.6611 1.29622 88.0996 2.31263 88.0996 3.31513Z" fill="#22201E"/>
<path d="M109.435 15.8262C109.028 16.7832 107.469 20.9226 107.469 20.9226C107.091 21.8804 107.097 22.5961 107.478 23.5324H103.428C104.37 22.5755 105.099 21.5877 105.439 20.8235L112.84 3.20463C113.424 1.8892 112.676 0.818385 112.182 0.595703H117.029L125.796 20.8876C126.131 21.6425 126.657 22.5957 127.739 23.5324H122.06C122.462 22.6185 122.5 21.8779 122.081 20.9226C122.081 20.9226 120.097 16.4433 119.845 15.8262H109.435ZM119.266 14.3598L114.501 3.41086L110.03 14.3598H119.266Z" fill="#22201E"/>
<path d="M151.997 3.34212V23.5324H150.96L134.218 4.45384V20.888C134.218 21.9572 134.719 22.8968 135.423 23.5328H131.378C132.052 22.8968 132.521 21.9576 132.521 20.888V3.48551C132.521 2.49314 132.292 2.11062 131.637 1.39533C131.305 1.03474 130.924 0.759341 130.693 0.595703H135.395L150.316 17.7186V3.34212C150.316 2.20804 149.858 1.26965 149.204 0.595703H153.123C152.438 1.20639 152.015 2.20804 151.997 3.34212Z" fill="#22201E"/>
<path d="M173.781 23.6705C172.42 23.8561 171.944 23.9412 170.245 23.9412C162.403 23.9412 157.227 18.6433 157.227 12.1914C157.227 5.0103 162.859 0.225586 170.3 0.225586C171.451 0.225586 172.368 0.282522 173.181 0.370667C174.243 0.487912 175.09 0.636367 176.092 0.842601L177.144 3.82688C175.968 2.7257 173.636 1.54397 170.295 1.54397C164.19 1.54397 161.306 6.53407 161.306 12.1732C161.306 17.9963 164.407 22.6077 170.527 22.6077C172.952 22.6077 175.811 21.7659 177.504 19.9718C176.777 21.7722 176.436 22.6874 176.255 23.1749C175.563 23.355 174.962 23.5098 173.781 23.6705Z" fill="#22201E"/>
<path d="M19.8328 2.05514L12.0974 2.04586L12.1138 21.4382C12.1138 22.4542 12.845 23.1939 13.3196 23.5322H7.34303C7.90847 23.1332 8.48382 22.4875 8.48382 21.4382L8.47865 2.05261H2.98183C2.00382 2.05261 0.87336 2.31241 0 2.75693L0.987482 0.595477H17.7992C19.0963 0.595477 20.0162 0.450396 20.8357 0.0585938L19.8328 2.05514Z" fill="#22201E"/>
<path d="M222.996 2.05514L215.26 2.04586L215.276 21.4382C215.276 22.4542 216.031 23.1939 216.502 23.5322H210.547C211.115 23.1332 211.647 22.4875 211.647 21.4382L211.641 2.05219H206.142C205.165 2.05219 204.034 2.31199 203.16 2.75693L204.151 0.595477H220.96C222.256 0.595477 223.175 0.450396 224.001 0.0585938L222.996 2.05514Z" fill="#22201E"/>
</svg>
