<svg width="64" height="64" viewBox="0 0 64 64" fill="none" xmlns="http://www.w3.org/2000/svg">
<path d="M46.68 24.8798H43.7467V17.0665C43.7467 13.9971 42.5273 11.0533 40.3569 8.88291C38.1865 6.71249 35.2428 5.49316 32.1733 5.49316C29.1039 5.49316 26.1602 6.71249 23.9898 8.88291C21.8193 11.0533 20.6 13.9971 20.6 17.0665V24.8798H17.6667C15.8986 24.8798 14.2029 25.5822 12.9526 26.8325C11.7024 28.0827 11 29.7784 11 31.5465V51.8398C11.0049 53.6064 11.7089 55.2993 12.9581 56.5484C14.2072 57.7976 15.9001 58.5016 17.6667 58.5065H46.68C48.4466 58.5016 50.1394 57.7976 51.3886 56.5484C52.6378 55.2993 53.3417 53.6064 53.3467 51.8398V31.5465C53.3467 29.7784 52.6443 28.0827 51.3941 26.8325C50.1438 25.5822 48.4481 24.8798 46.68 24.8798ZM23.2667 17.0665C23.2667 14.7043 24.205 12.4389 25.8754 10.7685C27.5457 9.09821 29.8111 8.15983 32.1733 8.15983C34.5355 8.15983 36.801 9.09821 38.4713 10.7685C40.1416 12.4389 41.08 14.7043 41.08 17.0665V24.8798H23.2667V17.0665ZM50.68 51.8398C50.6723 52.8983 50.2484 53.9113 49.4999 54.6598C48.7515 55.4083 47.7385 55.8322 46.68 55.8398H17.6667C16.6082 55.8322 15.5952 55.4083 14.8467 54.6598C14.0982 53.9113 13.6743 52.8983 13.6667 51.8398V31.5465C13.6667 30.4856 14.0881 29.4682 14.8382 28.7181C15.5884 27.9679 16.6058 27.5465 17.6667 27.5465H46.68C47.7409 27.5465 48.7583 27.9679 49.5084 28.7181C50.2586 29.4682 50.68 30.4856 50.68 31.5465V51.8398Z" fill="#47ABA6"/>
<path d="M34.3333 39.8669C34.3349 40.3331 34.2122 40.7914 33.9778 41.1944C33.7435 41.5975 33.406 41.9309 33 42.1602V46.1602C33 46.5138 32.8595 46.853 32.6095 47.103C32.3594 47.3531 32.0203 47.4935 31.6667 47.4935C31.3131 47.4935 30.9739 47.3531 30.7239 47.103C30.4738 46.853 30.3333 46.5138 30.3333 46.1602V42.1602C29.9274 41.9309 29.5899 41.5975 29.3555 41.1944C29.1212 40.7914 28.9985 40.3331 29 39.8669C29 39.1596 29.281 38.4813 29.7811 37.9812C30.2812 37.4811 30.9594 37.2002 31.6667 37.2002C32.3739 37.2002 33.0522 37.4811 33.5523 37.9812C34.0524 38.4813 34.3333 39.1596 34.3333 39.8669Z" fill="#47ABA6"/>
</svg>
