<svg width="56" height="56" viewBox="0 0 56 56" fill="none" xmlns="http://www.w3.org/2000/svg">
<path d="M1.33398 33.3335C1.33398 23.2775 1.33398 18.2482 4.45932 15.1255C7.58198 12.0002 12.6113 12.0002 22.6673 12.0002H33.334C43.39 12.0002 48.4193 12.0002 51.542 15.1255C54.6673 18.2482 54.6673 23.2775 54.6673 33.3335C54.6673 43.3895 54.6673 48.4188 51.542 51.5415C48.4193 54.6668 43.39 54.6668 33.334 54.6668H22.6673C12.6113 54.6668 7.58198 54.6668 4.45932 51.5415C1.33398 48.4188 1.33398 43.3895 1.33398 33.3335Z" stroke="#47ABA6" stroke-width="2.4"/>
<path d="M38.6673 12.0002C38.6673 6.97083 38.6673 4.45883 37.1047 2.89616C35.542 1.3335 33.03 1.3335 28.0007 1.3335C22.9713 1.3335 20.4593 1.3335 18.8967 2.89616C17.334 4.45883 17.334 6.97083 17.334 12.0002" stroke="#47ABA6" stroke-width="2.4"/>
<path d="M28.0013 42.2217C30.948 42.2217 33.3346 40.2323 33.3346 37.779C33.3346 35.3257 30.948 33.3337 28.0013 33.3337C25.0546 33.3337 22.668 31.3443 22.668 28.8883C22.668 26.435 25.0546 24.4457 28.0013 24.4457M28.0013 42.2217C25.0546 42.2217 22.668 40.2323 22.668 37.779M28.0013 42.2217V44.0003M28.0013 24.4457V22.667M28.0013 24.4457C30.948 24.4457 33.3346 26.435 33.3346 28.8883" stroke="#47ABA6" stroke-width="2.4" stroke-linecap="round"/>
</svg>
