<svg width="40" height="40" viewBox="0 0 40 40" fill="none" xmlns="http://www.w3.org/2000/svg">
<path d="M13.3902 12.355C13.4296 12.4825 13.4785 12.6062 13.5364 12.7249C13.3917 13.0624 13.3041 13.4258 13.2778 13.7976C13.2504 14.7222 13.5579 15.6212 14.133 16.2981C14.7082 16.9749 15.5042 17.3747 16.3473 17.4101C16.6614 17.436 16.9772 17.4153 17.2862 17.3484C17.439 17.6453 17.6567 17.8959 17.9197 18.0777C18.1826 18.2595 18.4827 18.3669 18.7928 18.3902C19.1655 18.4208 19.5383 18.3331 19.8666 18.1375C20.3124 18.6919 20.9374 19.0346 21.6094 19.093C21.9921 19.1248 22.3764 19.0616 22.7338 18.9081C22.9754 19.2948 23.2957 19.6148 23.6693 19.8426C24.043 20.0705 24.4598 20.2001 24.8869 20.2211H25.1287C25.6065 20.2466 26.0813 20.1243 26.4987 19.8681C26.9162 19.612 27.2597 19.2323 27.4899 18.7724C27.6724 18.8381 27.8609 18.8815 28.0521 18.9019C28.6129 18.9715 29.1761 18.7956 29.6193 18.4123C30.0625 18.0291 30.3499 17.4695 30.4189 16.8552C30.4523 16.4087 30.3559 15.9619 30.1434 15.5792C30.3859 15.3741 30.5856 15.1145 30.7291 14.8179C30.8726 14.5212 30.9566 14.1944 30.9754 13.8592C31.0073 13.39 30.9135 12.9208 30.7056 12.5092C30.9007 12.2172 31.0175 11.8713 31.0429 11.5105C31.0598 11.1863 31.0088 10.8622 30.8938 10.563C30.7788 10.2638 30.6029 9.99749 30.3795 9.78438C29.9128 9.32781 29.3176 9.06022 28.6929 9.02613H28.5918C28.5732 8.66994 28.4877 8.3218 28.3407 8.00355C28.1936 7.6853 27.9882 7.40381 27.7372 7.17674C27.1347 6.63608 26.3969 6.30838 25.6211 6.23684C24.8453 6.16531 24.0679 6.3533 23.3915 6.77603C23.2414 6.53992 23.0457 6.34296 22.8184 6.19912C22.591 6.05529 22.3376 5.96812 22.076 5.94381C21.7984 5.92075 21.5197 5.96713 21.2608 6.07943C21.0162 5.86073 20.7344 5.69748 20.4318 5.59916C20.1291 5.50084 19.8117 5.46941 19.4979 5.50669C19.1841 5.54396 18.8802 5.64921 18.6038 5.81631C18.3273 5.98342 18.084 6.20906 17.8877 6.48013C17.5882 6.2947 17.2483 6.20243 16.9045 6.2133C16.5607 6.22416 16.2262 6.33774 15.9369 6.54178C15.8437 6.60252 15.7601 6.67957 15.6896 6.76987C15.5027 6.9966 15.3628 7.26492 15.2794 7.55646C15.1959 7.848 15.1709 8.15586 15.2061 8.45898C14.6666 8.60496 14.1828 8.93374 13.8234 9.39857C13.4641 9.8634 13.2476 10.4406 13.2047 11.0481C13.1727 11.4897 13.2362 11.9332 13.3902 12.3427V12.355ZM14.8463 10.0248C15.1002 9.78943 15.4191 9.65478 15.7514 9.6426C16.0853 10.0136 16.4933 10.2943 16.9432 10.4625C17.188 10.5622 17.4467 10.6143 17.7078 10.6166C17.8635 10.6161 18.0185 10.5933 18.1688 10.5488C18.4147 10.4842 18.6406 10.3492 18.8234 10.1574C19.0061 9.96572 19.1391 9.72423 19.2088 9.45766C19.2466 9.2999 19.2258 9.13217 19.1509 8.99121C19.0761 8.85024 18.9534 8.74753 18.8097 8.70557C18.6658 8.6642 18.5129 8.68703 18.3843 8.76907C18.2558 8.8511 18.1621 8.98566 18.1238 9.14326C18.1012 9.19706 18.0677 9.24447 18.0258 9.28187C17.9839 9.31927 17.9347 9.34566 17.8821 9.35902C17.6931 9.39641 17.4984 9.37505 17.3199 9.29738C17.0107 9.18012 16.7327 8.98109 16.5103 8.7179C16.4985 8.69442 16.4854 8.67178 16.471 8.65009C16.3671 8.49532 16.3178 8.30453 16.3323 8.113C16.3468 7.92148 16.424 7.74218 16.5497 7.60826C16.6739 7.51221 16.8222 7.46065 16.9742 7.46065C17.1261 7.46065 17.2744 7.51221 17.3986 7.60826C17.5008 7.69342 17.6181 7.75437 17.7429 7.78726C17.8678 7.82016 17.9975 7.82428 18.1238 7.79937C18.2436 7.77686 18.3579 7.72745 18.4595 7.65426C18.561 7.58107 18.6477 7.48565 18.7141 7.37401C18.8378 7.16701 19.0102 7.00048 19.213 6.89197C19.4159 6.78347 19.6417 6.73703 19.8666 6.75754C20.1488 6.7807 20.416 6.90654 20.6256 7.11509C20.7606 7.25371 20.9315 7.34298 21.1148 7.37058C21.2981 7.39819 21.4846 7.36277 21.6487 7.26921C21.7533 7.20497 21.8718 7.17302 21.9917 7.17674C22.1101 7.1858 22.2243 7.2287 22.3229 7.30116C22.4216 7.37362 22.5012 7.47312 22.5539 7.58977C22.5929 7.66556 22.6401 7.73594 22.6944 7.79937C22.794 8.05319 22.8693 8.31762 22.9193 8.58844C22.9697 8.84237 22.94 9.10756 22.835 9.34053C22.7989 9.41023 22.7466 9.46811 22.6833 9.50821C22.6201 9.54831 22.5482 9.56916 22.4752 9.56862C22.4013 9.55526 22.3258 9.55798 22.253 9.57662C22.1801 9.59526 22.1113 9.62946 22.0505 9.67726C21.9896 9.72506 21.938 9.78552 21.8985 9.8552C21.859 9.92488 21.8324 10.0024 21.8202 10.0834C21.808 10.1643 21.8105 10.2471 21.8275 10.327C21.8445 10.4069 21.8757 10.4824 21.9193 10.5491C21.9629 10.6158 22.018 10.6724 22.0816 10.7157C22.1451 10.759 22.2158 10.7882 22.2896 10.8016C22.3607 10.8077 22.4322 10.8077 22.5033 10.8016C22.7622 10.7955 23.0155 10.7177 23.2396 10.5755C23.4637 10.4332 23.6514 10.231 23.7851 9.98782C24.034 9.50996 24.1216 8.95125 24.0324 8.40967C24.0043 8.23706 23.965 8.07061 23.9256 7.9165C24.4026 7.57414 24.9715 7.4198 25.5391 7.47881C26.0828 7.50568 26.6045 7.72158 27.0289 8.09527C27.1799 8.22541 27.3012 8.39232 27.3831 8.58279C27.4651 8.77325 27.5055 8.98203 27.5011 9.19258C27.1484 9.39322 26.855 9.6996 26.655 10.076C26.4549 10.4525 26.3566 10.8835 26.3713 11.3189C26.386 11.7543 26.5133 12.1761 26.7382 12.5353C26.9631 12.8944 27.2764 13.1761 27.6417 13.3476C27.7132 13.3792 27.7894 13.396 27.8665 13.3969C27.9763 13.3973 28.0837 13.3625 28.1756 13.2968C28.2675 13.231 28.3399 13.1373 28.3837 13.027C28.4134 12.9522 28.4291 12.8717 28.4302 12.7901C28.4312 12.7086 28.4174 12.6276 28.3897 12.5519C28.362 12.4762 28.3209 12.4073 28.2687 12.3492C28.2165 12.2911 28.1544 12.2449 28.0858 12.2133C27.9092 12.1319 27.7584 11.9952 27.6524 11.8203C27.5464 11.6454 27.4899 11.44 27.4899 11.23C27.4899 11.02 27.5464 10.8146 27.6524 10.6397C27.7584 10.4648 27.9092 10.3281 28.0858 10.2467C28.2698 10.1987 28.4597 10.1841 28.648 10.2036C29.0157 10.225 29.3661 10.3813 29.643 10.6474C29.7393 10.7354 29.8166 10.8457 29.8691 10.9705C29.9216 11.0953 29.9481 11.2313 29.9466 11.3687C29.9331 11.5295 29.8719 11.6811 29.7724 11.8002C29.6484 11.9658 29.5757 12.1702 29.5646 12.3841C29.5535 12.5979 29.6046 12.8101 29.7105 12.99C29.8344 13.2069 29.8897 13.4626 29.8679 13.7174C29.8621 13.8944 29.817 14.0671 29.7367 14.2206C29.6564 14.3742 29.5432 14.5041 29.4069 14.599C29.2902 14.6714 29.1898 14.7716 29.1129 14.8921C29.0361 15.0127 28.9848 15.1505 28.9628 15.2956C28.9379 15.4345 28.9411 15.5777 28.9722 15.7151C29.0033 15.8525 29.0615 15.9808 29.1427 16.0908C29.2779 16.2607 29.3466 16.4822 29.3338 16.7073C29.3161 16.8549 29.2714 16.997 29.2025 17.1253C29.1336 17.2535 29.0419 17.3653 28.9328 17.4539C28.8237 17.5425 28.6994 17.6061 28.5674 17.6409C28.4354 17.6757 28.2984 17.6811 28.1645 17.6566C27.9051 17.6347 27.6588 17.5224 27.4618 17.3361C27.3772 17.2561 27.2729 17.2055 27.162 17.1907C27.0512 17.176 26.9389 17.1978 26.8393 17.2534C26.7398 17.3089 26.6577 17.3957 26.6033 17.5027C26.549 17.6096 26.5249 17.7319 26.5342 17.8539C26.537 17.895 26.537 17.9362 26.5342 17.9772C26.4948 18.5937 25.7808 19.0314 24.9713 18.9636C24.7035 18.9575 24.4415 18.8782 24.2088 18.7328C23.9761 18.5875 23.7802 18.3807 23.6389 18.1313C23.5939 18.0353 23.535 17.9479 23.4646 17.8724C23.3503 17.6644 23.2919 17.4251 23.2962 17.1822C23.3005 16.9394 23.3674 16.7028 23.489 16.4998C23.6107 16.2968 23.7822 16.1356 23.9838 16.0349C24.1854 15.9342 24.4088 15.898 24.6283 15.9305C24.7774 15.951 24.9278 15.9056 25.0464 15.8045C25.1651 15.7033 25.2422 15.5546 25.2608 15.3911C25.2794 15.2276 25.2381 15.0627 25.1458 14.9327C25.0536 14.8026 24.918 14.7181 24.7689 14.6976C24.4024 14.644 24.0296 14.6883 23.6821 14.8268C23.3347 14.9652 23.0229 15.1937 22.7733 15.4928C22.5237 15.7919 22.3438 16.1527 22.2488 16.5445C22.1538 16.9363 22.1466 17.3475 22.2278 17.743C22.0478 17.8134 21.8561 17.8407 21.6656 17.8231C21.4614 17.8074 21.2626 17.7443 21.0824 17.6381C20.9021 17.5318 20.7445 17.3847 20.6199 17.2066C20.4721 17.0151 20.2639 16.8917 20.0368 16.8608C19.8097 16.83 19.5804 16.894 19.3944 17.0402C19.2436 17.1505 19.0636 17.2026 18.8828 17.1881C18.7556 17.1824 18.632 17.1401 18.5244 17.0655C18.4168 16.9908 18.3291 16.8864 18.27 16.7628C18.2632 16.7271 18.2538 16.692 18.2419 16.658C18.1452 16.434 18.1144 16.1826 18.1536 15.9385C18.1929 15.6944 18.3004 15.4698 18.4611 15.2956C18.5707 15.1844 18.6356 15.03 18.6414 14.8665C18.6472 14.7029 18.5934 14.5435 18.4921 14.4233C18.3907 14.3031 18.2499 14.232 18.1007 14.2257C17.9515 14.2193 17.8062 14.2782 17.6966 14.3894C17.4771 14.62 17.3035 14.8978 17.1864 15.2055C17.0694 15.5131 17.0115 15.8439 17.0163 16.1771C16.8305 16.2103 16.642 16.2206 16.4541 16.208C16.1805 16.2056 15.9101 16.1437 15.6584 16.0259C15.4068 15.9081 15.1789 15.7368 14.9881 15.5217C14.7972 15.3067 14.6472 15.0524 14.5466 14.7733C14.446 14.4943 14.3969 14.1962 14.4021 13.8962V13.7976C14.6887 14.0353 15.0074 14.2225 15.3466 14.3524C15.403 14.3721 15.4617 14.3825 15.5209 14.3832C15.67 14.4086 15.8222 14.3679 15.9439 14.2702C16.0657 14.1725 16.1471 14.0258 16.1702 13.8623C16.1933 13.6988 16.1563 13.5319 16.0672 13.3984C15.9781 13.2649 15.8443 13.1756 15.6952 13.1503C15.2425 12.9796 14.8495 12.6585 14.5708 12.2318C14.56 12.1998 14.5469 12.1689 14.5314 12.1393C14.3341 11.8043 14.2544 11.4021 14.3072 11.0076C14.3599 10.613 14.5415 10.2528 14.8182 9.99398L14.8463 10.0248ZM7.23425 23.6549L8.03256 24.1049C8.2546 24.2283 8.44405 24.4122 8.58283 24.6388C8.7216 24.8655 8.80507 25.1274 8.82525 25.3995C9.08947 29.2462 10.8491 31.5333 13.6488 31.6689C13.6931 31.6673 13.7373 31.6752 13.7788 31.6923C13.8203 31.7094 13.8583 31.7353 13.8907 31.7685C13.923 31.8017 13.9491 31.8415 13.9674 31.8858C13.9857 31.9301 13.9959 31.9779 13.9974 32.0265V35.343C13.9989 36.0472 14.2546 36.7221 14.7087 37.22C15.1628 37.7179 15.7782 37.9984 16.4204 38H26.2081C26.8493 37.9984 27.4639 37.7188 27.9178 37.2222C28.3717 36.7256 28.6281 36.0523 28.6311 35.3492V26.9714C28.6306 26.7251 28.6809 26.4817 28.7782 26.2597C28.8756 26.0376 29.0175 25.8426 29.1933 25.6892C30.8722 24.239 32.1873 22.3446 33.0153 20.184C33.8433 18.0235 34.1569 15.6676 33.9266 13.3376C33.6964 11.0077 32.9298 8.78018 31.699 6.86425C30.4682 4.94832 28.8135 3.40686 26.8903 2.38465C24.967 1.36244 22.8384 0.893016 20.7044 1.02046C18.5703 1.14791 16.5008 1.86805 14.6902 3.11325C12.8796 4.35845 11.3874 6.08784 10.3536 8.13901C9.31978 10.1902 8.7784 12.4958 8.78027 14.8394C8.78027 15.1476 8.78027 15.4559 8.81962 15.8442L6.34038 20.1595C6.17663 20.4476 6.06888 20.7696 6.02388 21.1055C5.97889 21.4413 5.99761 21.7837 6.07888 22.1113C6.16016 22.4388 6.30223 22.7444 6.4962 23.009C6.69017 23.2735 6.93186 23.4913 7.20615 23.6487L7.23425 23.6549ZM7.31858 20.8253L9.85405 16.4237C9.9022 16.3609 9.93843 16.2882 9.96064 16.2099C9.98284 16.1316 9.99056 16.0492 9.98335 15.9675C9.94962 15.5237 9.93275 15.1785 9.93275 14.8517C9.92871 12.7167 10.4197 10.6157 11.3596 8.7459C12.2994 6.87613 13.6574 5.29905 15.3057 4.16283C16.9541 3.0266 18.8389 2.36853 20.7829 2.25044C22.727 2.13234 24.6665 2.5581 26.4192 3.48772C28.172 4.41734 29.6804 5.82029 30.8029 7.56478C31.9254 9.30927 32.625 11.338 32.836 13.4604C33.0471 15.5828 32.7626 17.7293 32.0094 19.698C31.2561 21.6667 30.0588 23.3932 28.5299 24.7152C28.2171 24.9816 27.9639 25.3227 27.7895 25.7126C27.6151 26.1026 27.5242 26.531 27.5236 26.9653V35.343C27.5236 35.5316 27.4895 35.7183 27.4232 35.8923C27.3568 36.0663 27.2597 36.2241 27.1373 36.3566C27.0149 36.4891 26.8697 36.5936 26.7102 36.664C26.5507 36.7345 26.38 36.7695 26.2081 36.7671H16.4204C16.0764 36.7654 15.747 36.6149 15.5037 36.3482C15.2605 36.0815 15.1232 35.7202 15.1217 35.343V32.0265C15.1176 31.6113 14.9672 31.2141 14.7022 30.9177C14.4371 30.6213 14.0778 30.4487 13.6994 30.436C10.7311 30.2942 10.0733 27.1625 9.94962 25.307C9.91196 24.8246 9.76326 24.3606 9.51744 23.9584C9.27162 23.5563 8.93674 23.2291 8.54415 23.0076L7.75147 22.5884C7.61589 22.5096 7.49645 22.4012 7.40051 22.2699C7.30457 22.1386 7.23416 21.9871 7.19361 21.8248C7.15306 21.6625 7.14322 21.4929 7.16472 21.3263C7.18621 21.1597 7.23857 20.9997 7.31858 20.8561V20.8253Z" fill="url(#paint0_linear_2087_4613)"/>
<defs>
<linearGradient id="paint0_linear_2087_4613" x1="6" y1="19.5" x2="34" y2="19.5" gradientUnits="userSpaceOnUse">
<stop stop-color="#E48606"/>
<stop offset="1" stop-color="#BE4117"/>
</linearGradient>
</defs>
</svg>
