<svg width="40" height="40" viewBox="0 0 40 40" fill="none" xmlns="http://www.w3.org/2000/svg">
<path d="M8.33398 6.02583H5.08373C4.26587 6.02583 3.48151 6.35068 2.9032 6.92892C2.32489 7.50716 2 8.29142 2 9.10917V34.9167C2 35.7344 2.32489 36.5187 2.9032 37.0969C3.48151 37.6751 4.26587 38 5.08373 38H23.7649C24.5828 38 25.3672 37.6751 25.9455 37.0969C26.5238 36.5187 26.8487 35.7344 26.8487 34.9167V27.5167C28.1751 28.0841 29.6215 28.3137 31.0585 28.1848C32.4954 28.0559 33.8779 27.5726 35.0821 26.7781C36.2863 25.9837 37.2745 24.9029 37.9583 23.6327C38.6421 22.3625 39 20.9425 39 19.5C39 18.0575 38.6421 16.6375 37.9583 15.3673C37.2745 14.0971 36.2863 13.0163 35.0821 12.2219C33.8779 11.4274 32.4954 10.9441 31.0585 10.8152C29.6215 10.6863 28.1751 10.9159 26.8487 11.4833V8.4925C26.8487 6.95083 25.6954 6.02583 23.7649 6.02583H20.6812C20.6715 5.54162 20.4723 5.08052 20.1264 4.74154C19.7804 4.40256 19.3154 4.21274 18.831 4.21283H16.8944C17.0837 3.82862 17.1869 3.40771 17.1966 2.9795V2.85C17.1966 2.35935 17.0017 1.88879 16.6547 1.54185C16.3077 1.19491 15.8371 1 15.3464 1H13.749C13.2583 1 12.7877 1.19491 12.4407 1.54185C12.0937 1.88879 11.8988 2.35935 11.8988 2.85V2.96717C11.911 3.39576 12.0162 3.81657 12.2071 4.2005H10.1842C9.69774 4.20046 9.23083 4.39198 8.88454 4.7336C8.53826 5.07523 8.34046 5.53947 8.33398 6.02583ZM37.7712 19.5C37.7712 20.9801 37.3324 22.427 36.5103 23.6579C35.6881 24.8888 34.5195 25.8483 33.1521 26.4153C31.7846 26.9823 30.2798 27.1312 28.8278 26.8434C27.3757 26.5555 26.0416 25.8437 24.994 24.798C23.9464 23.7522 23.2323 22.4195 22.942 20.9681C22.6517 19.5167 22.7983 18.0118 23.3631 16.6436C23.9279 15.2755 24.8856 14.1054 26.1153 13.2813C27.3449 12.4572 28.7913 12.0161 30.2716 12.0137C31.2557 12.0129 32.2302 12.2059 33.1397 12.5816C34.0492 12.9574 34.8757 13.5086 35.5721 14.2038C36.2685 14.899 36.8211 15.7245 37.1985 16.6332C37.5758 17.5419 37.7704 18.5161 37.7712 19.5ZM25.6152 8.4925V12.1432C24.4391 12.8867 23.4586 13.9013 22.7557 15.102C22.0528 16.3026 21.6481 17.6543 21.5755 19.0437H11.6582C11.4947 19.0437 11.3378 19.1086 11.2221 19.2243C11.1065 19.3399 11.0415 19.4968 11.0415 19.6603C11.0415 19.8239 11.1065 19.9807 11.2221 20.0964C11.3378 20.212 11.4947 20.277 11.6582 20.277H21.594C21.7121 21.6093 22.1365 22.8964 22.834 24.0377C23.5315 25.1791 24.4833 26.1439 25.6152 26.8568V34.9167C25.6152 35.4073 25.4202 35.8779 25.0733 36.2248C24.7263 36.5718 24.2557 36.7667 23.7649 36.7667H5.08373C4.59301 36.7667 4.1224 36.5718 3.77541 36.2248C3.42843 35.8779 3.23349 35.4073 3.23349 34.9167V9.10917C3.23349 8.61852 3.42843 8.14796 3.77541 7.80102C4.1224 7.45408 4.59301 7.25917 5.08373 7.25917H8.35248C8.40702 7.7104 8.62578 8.12577 8.96703 8.42604C9.30829 8.7263 9.74815 8.89045 10.2027 8.88717H18.8372C19.2917 8.89045 19.7316 8.7263 20.0728 8.42604C20.4141 8.12577 20.6329 7.7104 20.6874 7.25917H23.8081C25.6152 7.25917 25.6152 8.19033 25.6152 8.4925ZM19.4477 6.06283V7.03717C19.4477 7.20072 19.3827 7.35757 19.2671 7.47322C19.1514 7.58886 18.9946 7.65383 18.831 7.65383H10.1965C10.033 7.65383 9.8761 7.58886 9.76044 7.47322C9.64478 7.35757 9.5798 7.20072 9.5798 7.03717V6.64867V6.07517C9.5798 5.91162 9.64478 5.75476 9.76044 5.63912C9.8761 5.52347 10.033 5.4585 10.1965 5.4585H18.831C18.9903 5.46166 19.1422 5.52634 19.2549 5.639C19.3675 5.75165 19.4322 5.90354 19.4354 6.06283H19.4477ZM13.1446 2.9795V2.85C13.1446 2.68645 13.2096 2.5296 13.3252 2.41395C13.4409 2.2983 13.5978 2.23333 13.7613 2.23333H15.3587C15.5223 2.23333 15.6791 2.2983 15.7948 2.41395C15.9105 2.5296 15.9755 2.68645 15.9755 2.85V2.96717C15.9755 3.47283 15.5561 4.2005 15.3587 4.2005H13.7552C13.5516 4.18817 13.1323 3.46667 13.1323 2.9795H13.1446ZM24.9861 16.7682C25.5771 16.3778 26.2699 16.1697 26.9782 16.1697C27.6865 16.1697 28.3793 16.3778 28.9703 16.7682C29.0411 16.8135 29.1019 16.8728 29.1489 16.9424C29.1959 17.0121 29.2283 17.0906 29.2439 17.1732C29.2595 17.2557 29.258 17.3406 29.2396 17.4226C29.2212 17.5046 29.1862 17.582 29.1368 17.65C29.0809 17.7348 29.005 17.8045 28.9157 17.853C28.8264 17.9014 28.7265 17.927 28.6249 17.9275C28.5046 17.9284 28.3867 17.8941 28.2857 17.8288C27.8948 17.5713 27.437 17.434 26.9689 17.434C26.5009 17.434 26.043 17.5713 25.6522 17.8288C25.5848 17.8805 25.5074 17.9177 25.425 17.9381C25.3425 17.9585 25.2568 17.9616 25.1731 17.9473C25.0893 17.933 25.0095 17.9016 24.9385 17.855C24.8675 17.8084 24.8069 17.7476 24.7604 17.6765C24.714 17.6054 24.6828 17.5255 24.6687 17.4417C24.6546 17.358 24.658 17.2722 24.6786 17.1898C24.6992 17.1075 24.7366 17.0302 24.7885 16.963C24.8403 16.8957 24.9055 16.8399 24.9799 16.799L24.9861 16.7682ZM31.4003 17.65C31.3525 17.5797 31.3197 17.5003 31.3041 17.4168C31.2884 17.3333 31.2902 17.2474 31.3093 17.1646C31.3284 17.0818 31.3645 17.0039 31.4151 16.9356C31.4658 16.8674 31.53 16.8104 31.6038 16.7682C32.2142 16.3633 32.9312 16.1487 33.6637 16.1515C34.3505 16.171 35.0178 16.3848 35.588 16.7682C35.6578 16.8145 35.7174 16.8745 35.7633 16.9446C35.8092 17.0147 35.8403 17.0934 35.8547 17.1759C35.8691 17.2585 35.8666 17.343 35.8472 17.4246C35.8279 17.5061 35.7921 17.5828 35.7421 17.65C35.6978 17.7183 35.6404 17.7771 35.5732 17.8231C35.5061 17.8691 35.4305 17.9013 35.3508 17.918C35.2711 17.9346 35.1889 17.9353 35.1089 17.92C35.0289 17.9047 34.9528 17.8737 34.8849 17.8288C34.4953 17.5711 34.0384 17.4336 33.5712 17.4336C33.104 17.4336 32.6472 17.5711 32.2575 17.8288C32.1565 17.8941 32.0386 17.9284 31.9183 17.9275C31.8157 17.928 31.7146 17.9029 31.6241 17.8544C31.5336 17.806 31.4567 17.7357 31.4003 17.65ZM27.9033 20.8813C28.6089 21.3468 29.4356 21.5949 30.2809 21.5949C31.1262 21.5949 31.9529 21.3468 32.6584 20.8813C32.7958 20.7914 32.9633 20.7597 33.1241 20.7932C33.2849 20.8268 33.4257 20.9228 33.5157 21.0602C33.6057 21.1975 33.6374 21.365 33.6038 21.5258C33.5703 21.6865 33.4742 21.8274 33.3368 21.9173C32.4186 22.5129 31.3476 22.8299 30.2531 22.83H30.1544C29.1025 22.8099 28.078 22.4912 27.2002 21.9112C27.064 21.8217 26.9688 21.682 26.9352 21.5226C26.9017 21.3631 26.9327 21.1969 27.0214 21.0602C27.0657 20.9884 27.1242 20.9265 27.1934 20.8783C27.2626 20.83 27.3409 20.7965 27.4236 20.7797C27.5063 20.763 27.5915 20.7633 27.674 20.7808C27.7565 20.7983 27.8345 20.8325 27.9033 20.8813ZM6.79211 13.8698L5.47228 12.4268C5.37394 12.3049 5.32573 12.15 5.33744 11.9938C5.34914 11.8375 5.41988 11.6916 5.53529 11.5856C5.6507 11.4797 5.80212 11.4216 5.95881 11.4232C6.11549 11.4248 6.26569 11.486 6.37889 11.5943L7.19916 12.4823L8.90138 10.2068C8.99952 10.076 9.14563 9.98949 9.30756 9.96636C9.46948 9.94324 9.63397 9.98537 9.76483 10.0835C9.89568 10.1816 9.98219 10.3277 10.0053 10.4896C10.0285 10.6515 9.98632 10.816 9.88817 10.9468L7.7419 13.8205C7.68765 13.8931 7.61808 13.9528 7.53814 13.9954C7.45819 14.0381 7.36983 14.0625 7.27934 14.0672H7.2485C7.1629 14.0677 7.07811 14.0505 6.99954 14.0165C6.92096 13.9826 6.85032 13.9326 6.79211 13.8698ZM21.4336 12.8338C21.5972 12.8338 21.7541 12.8988 21.8698 13.0145C21.9854 13.1301 22.0504 13.287 22.0504 13.4505C22.0504 13.6141 21.9854 13.7709 21.8698 13.8865C21.7541 14.0022 21.5972 14.0672 21.4336 14.0672H11.2512C11.0876 14.0672 10.9307 14.0022 10.8151 13.8865C10.6994 13.7709 10.6344 13.6141 10.6344 13.4505C10.6344 13.287 10.6994 13.1301 10.8151 13.0145C10.9307 12.8988 11.0876 12.8338 11.2512 12.8338H21.4336ZM10.1472 16.2933C10.2781 16.3915 10.3646 16.5376 10.3877 16.6995C10.4108 16.8614 10.3687 17.0258 10.2706 17.1567L8.12428 20.0303C8.07004 20.1029 8.00047 20.1626 7.92052 20.2053C7.84057 20.2479 7.75221 20.2724 7.66172 20.277C7.57612 20.2776 7.49133 20.2603 7.41276 20.2264C7.33418 20.1924 7.26354 20.1424 7.20533 20.0797L5.85466 18.6367C5.79373 18.5784 5.74541 18.5082 5.71268 18.4305C5.67995 18.3527 5.66351 18.2691 5.66438 18.1848C5.66525 18.1005 5.6834 18.0172 5.71773 17.9402C5.75205 17.8632 5.8018 17.794 5.86392 17.737C5.92604 17.6799 5.9992 17.6362 6.07888 17.6086C6.15855 17.5809 6.24305 17.5699 6.32716 17.5762C6.41126 17.5825 6.49318 17.606 6.56785 17.6452C6.64252 17.6844 6.70835 17.7385 6.76128 17.8042L7.58155 18.6922L9.28376 16.4167C9.33236 16.3519 9.39324 16.2973 9.46293 16.256C9.53262 16.2148 9.60976 16.1877 9.68994 16.1762C9.77012 16.1647 9.85177 16.1692 9.93022 16.1893C10.0087 16.2094 10.0824 16.2447 10.1472 16.2933ZM10.1472 22.46C10.2781 22.5581 10.3646 22.7042 10.3877 22.8661C10.4108 23.028 10.3687 23.1925 10.2706 23.3233L8.12428 26.197C8.07004 26.2696 8.00047 26.3293 7.92052 26.3719C7.84057 26.4146 7.75221 26.439 7.66172 26.4437C7.57612 26.4442 7.49133 26.427 7.41276 26.393C7.33418 26.3591 7.26354 26.3091 7.20533 26.2463L5.85466 24.8033C5.79373 24.745 5.74541 24.6748 5.71268 24.5971C5.67995 24.5194 5.66351 24.4358 5.66438 24.3515C5.66525 24.2672 5.6834 24.1839 5.71773 24.1069C5.75205 24.0298 5.8018 23.9607 5.86392 23.9036C5.92604 23.8466 5.9992 23.8029 6.07888 23.7752C6.15855 23.7476 6.24305 23.7366 6.32716 23.7429C6.41126 23.7492 6.49318 23.7727 6.56785 23.8119C6.64252 23.8511 6.70835 23.9052 6.76128 23.9708L7.58155 24.8588L9.28376 22.5833C9.38191 22.4525 9.52801 22.366 9.68994 22.3429C9.85187 22.3197 10.0164 22.3619 10.1472 22.46ZM11.0415 25.827C11.0415 25.6635 11.1065 25.5066 11.2221 25.391C11.3378 25.2753 11.4947 25.2103 11.6582 25.2103H21.816C21.9796 25.2103 22.1365 25.2753 22.2521 25.391C22.3678 25.5066 22.4328 25.6635 22.4328 25.827C22.4328 25.9905 22.3678 26.1474 22.2521 26.263C22.1365 26.3787 21.9796 26.4437 21.816 26.4437H11.6582C11.4947 26.4437 11.3378 26.3787 11.2221 26.263C11.1065 26.1474 11.0415 25.9905 11.0415 25.827ZM10.1472 28.6267C10.2781 28.7248 10.3646 28.8709 10.3877 29.0328C10.4108 29.1947 10.3687 29.3592 10.2706 29.49L8.12428 32.3637C8.07004 32.4362 8.00047 32.496 7.92052 32.5386C7.84057 32.5812 7.75221 32.6057 7.66172 32.6103C7.57612 32.6109 7.49133 32.5937 7.41276 32.5597C7.33418 32.5257 7.26354 32.4758 7.20533 32.413L5.85466 30.97C5.79373 30.9117 5.74541 30.8415 5.71268 30.7638C5.67995 30.6861 5.66351 30.6025 5.66438 30.5181C5.66525 30.4338 5.6834 30.3506 5.71773 30.2735C5.75205 30.1965 5.8018 30.1273 5.86392 30.0703C5.92604 30.0133 5.9992 29.9696 6.07888 29.9419C6.15855 29.9143 6.24305 29.9032 6.32716 29.9095C6.41126 29.9158 6.49318 29.9393 6.56785 29.9785C6.64252 30.0177 6.70835 30.0718 6.76128 30.1375L7.58155 31.0255L9.28376 28.75C9.38191 28.6192 9.52801 28.5327 9.68994 28.5095C9.85187 28.4864 10.0164 28.5285 10.1472 28.6267ZM22.4328 31.9937C22.4328 32.1572 22.3678 32.3141 22.2521 32.4297C22.1365 32.5454 21.9796 32.6103 21.816 32.6103H11.6582C11.4947 32.6103 11.3378 32.5454 11.2221 32.4297C11.1065 32.3141 11.0415 32.1572 11.0415 31.9937C11.0415 31.8301 11.1065 31.6733 11.2221 31.5576C11.3378 31.442 11.4947 31.377 11.6582 31.377H21.816C21.9796 31.377 22.1365 31.442 22.2521 31.5576C22.3678 31.6733 22.4328 31.8301 22.4328 31.9937Z" fill="url(#paint0_linear_2087_4614)"/>
<defs>
<linearGradient id="paint0_linear_2087_4614" x1="2" y1="19.5" x2="39" y2="19.5" gradientUnits="userSpaceOnUse">
<stop stop-color="#E48606"/>
<stop offset="1" stop-color="#BE4117"/>
</linearGradient>
</defs>
</svg>
