<svg width="32" height="32" viewBox="0 0 32 32" fill="none" xmlns="http://www.w3.org/2000/svg">
<path d="M16.0039 6.34326V8.13077" stroke="url(#paint0_linear_2002_289)" stroke-width="1.2" stroke-linecap="round" stroke-linejoin="round"/>
<path d="M25.608 15.8569H23.7969" stroke="url(#paint1_linear_2002_289)" stroke-width="1.2" stroke-linecap="round" stroke-linejoin="round"/>
<path d="M16.0039 25.3705V23.583" stroke="url(#paint2_linear_2002_289)" stroke-width="1.2" stroke-linecap="round" stroke-linejoin="round"/>
<path d="M6.40039 15.8569H8.2048" stroke="url(#paint3_linear_2002_289)" stroke-width="1.2" stroke-linecap="round" stroke-linejoin="round"/>
<path d="M11.5918 10.4741L16.0026 15.8565H20.4134" stroke="url(#paint4_linear_2002_289)" stroke-width="1.2" stroke-linecap="round" stroke-linejoin="round"/>
<path d="M24.2312 16.0147C24.2312 20.6141 20.4659 24.3522 15.8092 24.3522C11.1525 24.3522 7.38711 20.6141 7.38711 16.0147C7.38711 11.4153 11.1525 7.67715 15.8092 7.67715C20.4659 7.67715 24.2312 11.4153 24.2312 16.0147Z" stroke="url(#paint5_linear_2002_289)" stroke-width="1.2"/>
<path d="M30.6658 18.9876C30.8864 17.9747 31 16.9287 31 15.8562C31 7.64688 24.2836 1 16.0033 1C7.7231 1 1 7.6535 1 15.8562C1 24.0589 7.71642 30.7124 15.9967 30.7124C16.812 30.7124 17.6073 30.6462 18.3892 30.5204" stroke="url(#paint6_linear_2002_289)" stroke-width="1.2" stroke-linecap="round" stroke-linejoin="round"/>
<path d="M25.045 31.0003C24.4985 31.0003 24.0072 30.8954 23.5712 30.6856C23.138 30.4729 22.7921 30.1816 22.5334 29.8116C22.2747 29.4416 22.1366 29.0191 22.1191 28.5442H23.4273C23.4592 28.9288 23.6293 29.2449 23.9374 29.4926C24.2456 29.7402 24.6148 29.864 25.045 29.864C25.388 29.864 25.6918 29.7854 25.9563 29.628C26.2238 29.4678 26.4331 29.2478 26.5842 28.9681C26.7383 28.6884 26.8153 28.3694 26.8153 28.0111C26.8153 27.6469 26.7368 27.322 26.5799 27.0365C26.4229 26.751 26.2063 26.5266 25.9302 26.3635C25.6569 26.2003 25.343 26.1173 24.9883 26.1144C24.718 26.1144 24.4462 26.161 24.1729 26.2542C23.8996 26.3475 23.6787 26.4698 23.5101 26.6213L22.2761 26.4378L22.7776 21.9277H27.6874V23.0858H23.8982L23.6148 25.59H23.6671C23.8415 25.421 24.0726 25.2797 24.3604 25.1661C24.6511 25.0524 24.9621 24.9956 25.2935 24.9956C25.8371 24.9956 26.3211 25.1253 26.7456 25.3846C27.1729 25.6439 27.5086 25.9978 27.7528 26.4465C27.9999 26.8923 28.122 27.4051 28.1191 27.9848C28.122 28.5646 27.9912 29.0818 27.7267 29.5363C27.465 29.9908 27.1017 30.3491 26.6365 30.6113C26.1743 30.8706 25.6438 31.0003 25.045 31.0003Z" fill="url(#paint7_linear_2002_289)"/>
<defs>
<linearGradient id="paint0_linear_2002_289" x1="16.0039" y1="7.23702" x2="17.0039" y2="7.23702" gradientUnits="userSpaceOnUse">
<stop stop-color="#E48606"/>
<stop offset="1" stop-color="#BE4117"/>
</linearGradient>
<linearGradient id="paint1_linear_2002_289" x1="23.7969" y1="16.3569" x2="25.608" y2="16.3569" gradientUnits="userSpaceOnUse">
<stop stop-color="#E48606"/>
<stop offset="1" stop-color="#BE4117"/>
</linearGradient>
<linearGradient id="paint2_linear_2002_289" x1="16.0039" y1="24.4768" x2="17.0039" y2="24.4768" gradientUnits="userSpaceOnUse">
<stop stop-color="#E48606"/>
<stop offset="1" stop-color="#BE4117"/>
</linearGradient>
<linearGradient id="paint3_linear_2002_289" x1="6.40039" y1="16.3569" x2="8.2048" y2="16.3569" gradientUnits="userSpaceOnUse">
<stop stop-color="#E48606"/>
<stop offset="1" stop-color="#BE4117"/>
</linearGradient>
<linearGradient id="paint4_linear_2002_289" x1="11.5918" y1="13.1653" x2="20.4134" y2="13.1653" gradientUnits="userSpaceOnUse">
<stop stop-color="#E48606"/>
<stop offset="1" stop-color="#BE4117"/>
</linearGradient>
<linearGradient id="paint5_linear_2002_289" x1="6.78711" y1="16.0147" x2="24.8312" y2="16.0147" gradientUnits="userSpaceOnUse">
<stop stop-color="#E48606"/>
<stop offset="1" stop-color="#BE4117"/>
</linearGradient>
<linearGradient id="paint6_linear_2002_289" x1="1" y1="15.8562" x2="31" y2="15.8562" gradientUnits="userSpaceOnUse">
<stop stop-color="#E48606"/>
<stop offset="1" stop-color="#BE4117"/>
</linearGradient>
<linearGradient id="paint7_linear_2002_289" x1="22.1191" y1="26.464" x2="28.1191" y2="26.464" gradientUnits="userSpaceOnUse">
<stop stop-color="#E48606"/>
<stop offset="1" stop-color="#BE4117"/>
</linearGradient>
</defs>
</svg>
