<svg width="46" height="45" viewBox="0 0 46 45" fill="none" xmlns="http://www.w3.org/2000/svg">
<path fill-rule="evenodd" clip-rule="evenodd" d="M7.93174 4.8516C8.08127 4.69625 8.07655 4.44909 7.9212 4.29956C7.76584 4.15003 7.51868 4.15475 7.36915 4.31011C7.21962 4.46546 7.22435 4.71262 7.3797 4.86215C7.53506 5.01168 7.78221 5.00696 7.93174 4.8516ZM5.25764 7.8973C5.53266 8.162 5.54102 8.59954 5.27631 8.87456C5.01161 9.14958 4.57407 9.15794 4.29905 8.89323C4.02404 8.62852 4.01568 8.19099 4.28038 7.91597C4.54509 7.64095 4.98262 7.63259 5.25764 7.8973ZM3.42284 13.2902C3.76589 12.9338 3.75506 12.3668 3.39864 12.0237C3.04222 11.6807 2.47518 11.6915 2.13213 12.0479C1.78907 12.4044 1.79991 12.9714 2.15633 13.3144C2.51275 13.6575 3.07978 13.6467 3.42284 13.2902ZM2.51265 16.5483C2.94897 16.9683 2.96224 17.6624 2.54228 18.0987C2.12232 18.5351 1.42817 18.5483 0.991852 18.1284C0.555533 17.7084 0.54227 17.0143 0.962228 16.5779C1.38219 16.1416 2.07634 16.1284 2.51265 16.5483ZM2.65545 22.9313C3.13527 22.4328 3.12012 21.6397 2.62161 21.1599C2.1231 20.68 1.33 20.6952 0.850181 21.1937C0.370362 21.6922 0.385515 22.4853 0.884027 22.9651C1.38254 23.445 2.17563 23.4298 2.65545 22.9313ZM45.3022 24.1221C45.4528 24.267 45.4573 24.5065 45.3125 24.657C45.1676 24.8075 44.9281 24.8121 44.7776 24.6672C44.6271 24.5223 44.6225 24.2829 44.7674 24.1324C44.9123 23.9818 45.1517 23.9773 45.3022 24.1221ZM44.0303 29.3526C44.2891 29.0837 44.2809 28.6559 44.012 28.397C43.7431 28.1382 43.3153 28.1464 43.0564 28.4153C42.7976 28.6842 42.8058 29.112 43.0747 29.3709C43.3436 29.6297 43.7714 29.6215 44.0303 29.3526ZM41.7087 32.3043C42.0695 32.6515 42.0805 33.2255 41.7332 33.5863C41.386 33.9471 40.812 33.958 40.4512 33.6108C40.0904 33.2635 40.0795 32.6896 40.4267 32.3288C40.774 31.968 41.3479 31.957 41.7087 32.3043ZM8.74663 35.8386C9.33426 35.2281 9.3157 34.2568 8.70518 33.6691C8.09465 33.0815 7.12336 33.1001 6.53572 33.7106C5.94809 34.3211 5.96665 35.2924 6.57717 35.88C7.1877 36.4677 8.159 36.4491 8.74663 35.8386ZM12.3841 38.9498C12.9874 38.323 12.9683 37.3258 12.3416 36.7226C11.7148 36.1193 10.7177 36.1384 10.1144 36.7651C9.51112 37.3919 9.53017 38.389 10.1569 38.9923C10.7837 39.5956 11.7808 39.5765 12.3841 38.9498ZM16.5529 38.9659C17.1792 39.5687 17.1983 40.5651 16.5955 41.1914C15.9926 41.8178 14.9962 41.8368 14.3699 41.234C13.7436 40.6311 13.7246 39.6347 14.3274 39.0084C14.9302 38.3821 15.9266 38.3631 16.5529 38.9659ZM21.1556 42.4547C21.755 41.832 21.736 40.8413 21.1133 40.2419C20.4906 39.6426 19.5 39.6615 18.9006 40.2842C18.3013 40.9069 18.3202 41.8976 18.9429 42.4969C19.5656 43.0963 20.5563 43.0774 21.1556 42.4547ZM25.8093 40.5448C26.3956 41.109 26.4134 42.0416 25.8491 42.6278C25.2849 43.214 24.3523 43.2318 23.7661 42.6676C23.1799 42.1034 23.1621 41.1708 23.7263 40.5846C24.2905 39.9983 25.2231 39.9805 25.8093 40.5448ZM30.5052 41.8243C31.0399 41.2687 31.0231 40.3849 30.4675 39.8501C29.9119 39.3154 29.0281 39.3323 28.4934 39.8879C27.9587 40.4434 27.9755 41.3273 28.5311 41.862C29.0867 42.3967 29.9705 42.3798 30.5052 41.8243ZM34.7425 38.1989C35.24 38.6777 35.2552 39.4692 34.7763 39.9668C34.2974 40.4643 33.5059 40.4794 33.0084 40.0005C32.5109 39.5217 32.4957 38.7302 32.9746 38.2326C33.4535 37.7351 34.245 37.72 34.7425 38.1989ZM38.5823 37.2529C39.0244 36.8108 39.0244 36.0941 38.5823 35.652C38.1402 35.2099 37.4235 35.2099 36.9814 35.652C36.5394 36.0941 36.5394 36.8108 36.9814 37.2529C37.4235 37.695 38.1402 37.695 38.5823 37.2529ZM5.82102 32.0224C6.38887 31.4324 6.37094 30.4938 5.78097 29.926C5.191 29.3581 4.25241 29.3761 3.68456 29.966C3.11672 30.556 3.13465 31.4946 3.72462 32.0624C4.31458 32.6303 5.25318 32.6123 5.82102 32.0224ZM3.74266 25.7084C4.28765 26.2534 4.28765 27.137 3.74266 27.682C3.19768 28.2269 2.31409 28.2269 1.76911 27.682C1.22413 27.137 1.22413 26.2534 1.76911 25.7084C2.31409 25.1634 3.19768 25.1634 3.74266 25.7084Z" fill="#131619"/>
<g clip-path="url(#clip0_2011_161)">
<path d="M13.7471 18.9721C15.2186 19.9741 18.2273 22.1876 20.6481 25.0313C21.4415 25.9632 22.93 25.7745 23.4677 24.675C25.6094 20.2957 33.279 8.45317 40.055 1.64348C40.3859 1.31097 39.9616 0.77563 39.5541 1.00781C36.3437 2.83696 27.5474 9.17216 21.8984 19.2214C21.8984 19.2214 19.6343 16.3825 16.2991 14.441C15.6965 14.0902 14.9227 14.3215 14.6063 14.9429L13.3476 17.4138C13.0694 17.9599 13.2406 18.6272 13.7471 18.9721Z" fill="#131619"/>
</g>
<defs>
<clipPath id="clip0_2011_161">
<rect width="26.9588" height="24.6774" fill="white" transform="translate(13.2148 0.95166)"/>
</clipPath>
</defs>
</svg>
